<?xml version="1.0" standalone="no"?>
 <!DOCTYPE svg PUBLIC "-//W3C//DTD SVG 1.1//EN" 
 "http://www.w3.org/Graphics/SVG/1.1/DTD/svg11.dtd"> 
<svg xmlns="http://www.w3.org/2000/svg" version="1.1" 
    width="5.34162cm" height="3.65252cm" viewBox="0 0 21030 14380 ">
<title>SVG Picture created as cam-chassis-B_Cu.svg date 2015/07/31 09:03:59 </title>
  <desc>Picture generated by PCBNEW </desc>
<g style="fill:#000000; fill-opacity:1;stroke:#000000; stroke-opacity:1;
stroke-linecap:round; stroke-linejoin:round; "
 transform="translate(0 0) scale(1 1)">
</g>
<g style="fill:#000000; fill-opacity:0.0; 
stroke:#000000; stroke-width:-0.000393701; stroke-opacity:1; 
stroke-linecap:round; stroke-linejoin:round;">
</g>
<g style="fill:#000000; fill-opacity:0.0; 
stroke:#000000; stroke-width:39.3701; stroke-opacity:1; 
stroke-linecap:round; stroke-linejoin:round;">
<path d="M719 14185
L719 13398
" />
<path d="M20994 14185
L719 14185
" />
<path d="M20994 13398
L20994 14185
" />
<path d="M719 13398
L719 2177
" />
<path d="M20994 2177
L20994 13398
" />
<path d="M719 577
L20994 577
" />
</g>
<g style="fill:#000000; fill-opacity:0.0; 
stroke:#000000; stroke-width:0; stroke-opacity:1; 
stroke-linecap:round; stroke-linejoin:round;">
</g>
<g style="fill:#000000; fill-opacity:1.0; 
stroke:#000000; stroke-width:0; stroke-opacity:1; 
stroke-linecap:round; stroke-linejoin:round;">
<polyline style="fill-rule:evenodd;"
points="798,3043
798,2256
1585,2256
1585,3043
798,3043
" /> 
<polyline style="fill-rule:evenodd;"
points="798,3949
798,3161
1585,3161
1585,3949
798,3949
" /> 
<polyline style="fill-rule:evenodd;"
points="798,4854
798,4067
1585,4067
1585,4854
798,4854
" /> 
<polyline style="fill-rule:evenodd;"
points="798,5760
798,4972
1585,4972
1585,5760
798,5760
" /> 
<polyline style="fill-rule:evenodd;"
points="798,6665
798,5878
1585,5878
1585,6665
798,6665
" /> 
<polyline style="fill-rule:evenodd;"
points="798,7571
798,6783
1585,6783
1585,7571
798,7571
" /> 
<circle cx="8719.37" cy="12498" r="330" /> 
</g>
<g style="fill:#000000; fill-opacity:1.0; 
stroke:#000000; stroke-width:39.3701; stroke-opacity:1; 
stroke-linecap:round; stroke-linejoin:round;">
</g>
<g style="fill:#000000; fill-opacity:1.0; 
stroke:#000000; stroke-width:0; stroke-opacity:1; 
stroke-linecap:round; stroke-linejoin:round;">
<circle cx="9719.37" cy="12498" r="330" /> 
</g>
<g style="fill:#000000; fill-opacity:1.0; 
stroke:#000000; stroke-width:39.3701; stroke-opacity:1; 
stroke-linecap:round; stroke-linejoin:round;">
</g>
<g style="fill:#000000; fill-opacity:1.0; 
stroke:#000000; stroke-width:0; stroke-opacity:1; 
stroke-linecap:round; stroke-linejoin:round;">
<circle cx="18519.4" cy="11098" r="330" /> 
</g>
<g style="fill:#000000; fill-opacity:1.0; 
stroke:#000000; stroke-width:39.3701; stroke-opacity:1; 
stroke-linecap:round; stroke-linejoin:round;">
</g>
<g style="fill:#000000; fill-opacity:1.0; 
stroke:#000000; stroke-width:0; stroke-opacity:1; 
stroke-linecap:round; stroke-linejoin:round;">
<circle cx="19519.4" cy="11098" r="330" /> 
</g>
<g style="fill:#000000; fill-opacity:1.0; 
stroke:#000000; stroke-width:39.3701; stroke-opacity:1; 
stroke-linecap:round; stroke-linejoin:round;">
</g>
<g style="fill:#000000; fill-opacity:1.0; 
stroke:#000000; stroke-width:0; stroke-opacity:1; 
stroke-linecap:round; stroke-linejoin:round;">
<circle cx="16419.4" cy="8598.03" r="330" /> 
</g>
<g style="fill:#000000; fill-opacity:1.0; 
stroke:#000000; stroke-width:39.3701; stroke-opacity:1; 
stroke-linecap:round; stroke-linejoin:round;">
</g>
<g style="fill:#000000; fill-opacity:1.0; 
stroke:#000000; stroke-width:0; stroke-opacity:1; 
stroke-linecap:round; stroke-linejoin:round;">
<circle cx="15419.4" cy="8598.03" r="330" /> 
</g>
<g style="fill:#000000; fill-opacity:1.0; 
stroke:#000000; stroke-width:39.3701; stroke-opacity:1; 
stroke-linecap:round; stroke-linejoin:round;">
</g>
<g style="fill:#000000; fill-opacity:1.0; 
stroke:#000000; stroke-width:0; stroke-opacity:1; 
stroke-linecap:round; stroke-linejoin:round;">
<circle cx="19019.4" cy="6998.03" r="330" /> 
</g>
<g style="fill:#000000; fill-opacity:1.0; 
stroke:#000000; stroke-width:39.3701; stroke-opacity:1; 
stroke-linecap:round; stroke-linejoin:round;">
</g>
<g style="fill:#000000; fill-opacity:1.0; 
stroke:#000000; stroke-width:0; stroke-opacity:1; 
stroke-linecap:round; stroke-linejoin:round;">
<circle cx="20019.4" cy="6998.03" r="330" /> 
</g>
<g style="fill:#000000; fill-opacity:1.0; 
stroke:#000000; stroke-width:39.3701; stroke-opacity:1; 
stroke-linecap:round; stroke-linejoin:round;">
</g>
<g style="fill:#000000; fill-opacity:1.0; 
stroke:#000000; stroke-width:0; stroke-opacity:1; 
stroke-linecap:round; stroke-linejoin:round;">
<polyline style="fill-rule:evenodd;"
points="17759,3998
17079,3998
17079,3198
17759,3198
17759,3998
" /> 
</g>
<g style="fill:#000000; fill-opacity:1.0; 
stroke:#000000; stroke-width:680; stroke-opacity:1; 
stroke-linecap:round; stroke-linejoin:round;">
</g>
<g style="fill:#000000; fill-opacity:0.0; 
stroke:#000000; stroke-width:680; stroke-opacity:1; 
stroke-linecap:round; stroke-linejoin:round;">
<path d="M18419 3658
L18419 3538
" />
<path d="M19419 3658
L19419 3538
" />
</g>
<g style="fill:#000000; fill-opacity:0.0; 
stroke:#000000; stroke-width:0; stroke-opacity:1; 
stroke-linecap:round; stroke-linejoin:round;">
</g>
<g style="fill:#000000; fill-opacity:1.0; 
stroke:#000000; stroke-width:0; stroke-opacity:1; 
stroke-linecap:round; stroke-linejoin:round;">
<polyline style="fill-rule:evenodd;"
points="12479,9738
12479,9058
13159,9058
13159,9738
12479,9738
" /> 
</g>
<g style="fill:#000000; fill-opacity:1.0; 
stroke:#000000; stroke-width:680; stroke-opacity:1; 
stroke-linecap:round; stroke-linejoin:round;">
</g>
<g style="fill:#000000; fill-opacity:0.0; 
stroke:#000000; stroke-width:680; stroke-opacity:1; 
stroke-linecap:round; stroke-linejoin:round;">
<path d="M13819 9398
L13819 9398
" />
<path d="M12819 10398
L12819 10398
" />
<path d="M13819 10398
L13819 10398
" />
<path d="M12819 11398
L12819 11398
" />
<path d="M13819 11398
L13819 11398
" />
</g>
<g style="fill:#000000; fill-opacity:0.0; 
stroke:#000000; stroke-width:0; stroke-opacity:1; 
stroke-linecap:round; stroke-linejoin:round;">
</g>
<g style="fill:#000000; fill-opacity:1.0; 
stroke:#000000; stroke-width:0; stroke-opacity:1; 
stroke-linecap:round; stroke-linejoin:round;">
<polyline style="fill-rule:evenodd;"
points="13775,6442
13775,6953
13263,6953
13263,6442
13775,6442
" /> 
<circle cx="11550.9" cy="6698.03" r="255.906" /> 
</g>
<g style="fill:#000000; fill-opacity:1.0; 
stroke:#000000; stroke-width:39.3701; stroke-opacity:1; 
stroke-linecap:round; stroke-linejoin:round;">
</g>
<g style="fill:#000000; fill-opacity:1.0; 
stroke:#000000; stroke-width:0; stroke-opacity:1; 
stroke-linecap:round; stroke-linejoin:round;">
<circle cx="5285.37" cy="2333.03" r="177" /> 
</g>
<g style="fill:#000000; fill-opacity:1.0; 
stroke:#000000; stroke-width:39.3701; stroke-opacity:1; 
stroke-linecap:round; stroke-linejoin:round;">
</g>
<g style="fill:#000000; fill-opacity:1.0; 
stroke:#000000; stroke-width:0; stroke-opacity:1; 
stroke-linecap:round; stroke-linejoin:round;">
<circle cx="3553.37" cy="2333.03" r="177" /> 
</g>
<g style="fill:#000000; fill-opacity:1.0; 
stroke:#000000; stroke-width:39.3701; stroke-opacity:1; 
stroke-linecap:round; stroke-linejoin:round;">
</g>
<g style="fill:#000000; fill-opacity:1.0; 
stroke:#000000; stroke-width:0; stroke-opacity:1; 
stroke-linecap:round; stroke-linejoin:round;">
<circle cx="8519.37" cy="6137.03" r="295.5" /> 
</g>
<g style="fill:#000000; fill-opacity:1.0; 
stroke:#000000; stroke-width:39.3701; stroke-opacity:1; 
stroke-linecap:round; stroke-linejoin:round;">
</g>
<g style="fill:#000000; fill-opacity:1.0; 
stroke:#000000; stroke-width:0; stroke-opacity:1; 
stroke-linecap:round; stroke-linejoin:round;">
<circle cx="8519.37" cy="8059.03" r="295.5" /> 
</g>
<g style="fill:#000000; fill-opacity:1.0; 
stroke:#000000; stroke-width:39.3701; stroke-opacity:1; 
stroke-linecap:round; stroke-linejoin:round;">
</g>
<g style="fill:#000000; fill-opacity:1.0; 
stroke:#000000; stroke-width:0; stroke-opacity:1; 
stroke-linecap:round; stroke-linejoin:round;">
<circle cx="3160.31" cy="12787.8" r="118.11" /> 
</g>
<g style="fill:#000000; fill-opacity:1.0; 
stroke:#000000; stroke-width:39.3701; stroke-opacity:1; 
stroke-linecap:round; stroke-linejoin:round;">
</g>
<g style="fill:#000000; fill-opacity:1.0; 
stroke:#000000; stroke-width:0; stroke-opacity:1; 
stroke-linecap:round; stroke-linejoin:round;">
<circle cx="3357.16" cy="5484.65" r="118.11" /> 
</g>
<g style="fill:#000000; fill-opacity:1.0; 
stroke:#000000; stroke-width:39.3701; stroke-opacity:1; 
stroke-linecap:round; stroke-linejoin:round;">
</g>
<g style="fill:#000000; fill-opacity:1.0; 
stroke:#000000; stroke-width:0; stroke-opacity:1; 
stroke-linecap:round; stroke-linejoin:round;">
<circle cx="2057.95" cy="9461.02" r="118.11" /> 
</g>
<g style="fill:#000000; fill-opacity:1.0; 
stroke:#000000; stroke-width:39.3701; stroke-opacity:1; 
stroke-linecap:round; stroke-linejoin:round;">
</g>
<g style="fill:#000000; fill-opacity:1.0; 
stroke:#000000; stroke-width:0; stroke-opacity:1; 
stroke-linecap:round; stroke-linejoin:round;">
<circle cx="2333.54" cy="7472.84" r="118.11" /> 
</g>
<g style="fill:#000000; fill-opacity:1.0; 
stroke:#000000; stroke-width:39.3701; stroke-opacity:1; 
stroke-linecap:round; stroke-linejoin:round;">
</g>
<g style="fill:#000000; fill-opacity:1.0; 
stroke:#000000; stroke-width:0; stroke-opacity:1; 
stroke-linecap:round; stroke-linejoin:round;">
<circle cx="4813.85" cy="11823.2" r="118.11" /> 
</g>
<g style="fill:#000000; fill-opacity:1.0; 
stroke:#000000; stroke-width:39.3701; stroke-opacity:1; 
stroke-linecap:round; stroke-linejoin:round;">
</g>
<g style="fill:#000000; fill-opacity:1.0; 
stroke:#000000; stroke-width:0; stroke-opacity:1; 
stroke-linecap:round; stroke-linejoin:round;">
<circle cx="7195.74" cy="12354.7" r="118.11" /> 
</g>
<g style="fill:#000000; fill-opacity:1.0; 
stroke:#000000; stroke-width:39.3701; stroke-opacity:1; 
stroke-linecap:round; stroke-linejoin:round;">
</g>
<g style="fill:#000000; fill-opacity:1.0; 
stroke:#000000; stroke-width:0; stroke-opacity:1; 
stroke-linecap:round; stroke-linejoin:round;">
<circle cx="7431.96" cy="1587.01" r="118.11" /> 
</g>
<g style="fill:#000000; fill-opacity:1.0; 
stroke:#000000; stroke-width:39.3701; stroke-opacity:1; 
stroke-linecap:round; stroke-linejoin:round;">
</g>
<g style="fill:#000000; fill-opacity:1.0; 
stroke:#000000; stroke-width:0; stroke-opacity:1; 
stroke-linecap:round; stroke-linejoin:round;">
<circle cx="7884.72" cy="10524" r="118.11" /> 
</g>
<g style="fill:#000000; fill-opacity:1.0; 
stroke:#000000; stroke-width:39.3701; stroke-opacity:1; 
stroke-linecap:round; stroke-linejoin:round;">
</g>
<g style="fill:#000000; fill-opacity:1.0; 
stroke:#000000; stroke-width:0; stroke-opacity:1; 
stroke-linecap:round; stroke-linejoin:round;">
<circle cx="11723.3" cy="9815.35" r="118.11" /> 
</g>
<g style="fill:#000000; fill-opacity:1.0; 
stroke:#000000; stroke-width:39.3701; stroke-opacity:1; 
stroke-linecap:round; stroke-linejoin:round;">
</g>
<g style="fill:#000000; fill-opacity:1.0; 
stroke:#000000; stroke-width:0; stroke-opacity:1; 
stroke-linecap:round; stroke-linejoin:round;">
<circle cx="2963.46" cy="11764.2" r="118.11" /> 
</g>
<g style="fill:#000000; fill-opacity:1.0; 
stroke:#000000; stroke-width:39.3701; stroke-opacity:1; 
stroke-linecap:round; stroke-linejoin:round;">
</g>
<g style="fill:#000000; fill-opacity:1.0; 
stroke:#000000; stroke-width:0; stroke-opacity:1; 
stroke-linecap:round; stroke-linejoin:round;">
<circle cx="10128.8" cy="5209.06" r="118.11" /> 
</g>
<g style="fill:#000000; fill-opacity:1.0; 
stroke:#000000; stroke-width:39.3701; stroke-opacity:1; 
stroke-linecap:round; stroke-linejoin:round;">
</g>
<g style="fill:#000000; fill-opacity:1.0; 
stroke:#000000; stroke-width:314.961; stroke-opacity:1; 
stroke-linecap:round; stroke-linejoin:round;">
</g>
<g style="fill:#000000; fill-opacity:0.0; 
stroke:#000000; stroke-width:314.961; stroke-opacity:1; 
stroke-linecap:round; stroke-linejoin:round;">
<path d="M8475 10957
L8435 10996
" />
<path d="M11550 8157
L8750 10957
" />
<path d="M8750 10957
L8475 10957
" />
<path d="M11550 6698
L11550 8157
" />
<path d="M3357 7964
L3357 5484
" />
<path d="M6388 10996
L3357 7964
" />
<path d="M8435 10996
L6388 10996
" />
<path d="M3160 12787
L5935 12787
" />
<path d="M9719 12980
L9719 12498
" />
<path d="M9380 13319
L9719 12980
" />
<path d="M8278 13319
L9380 13319
" />
<path d="M7766 12807
L8278 13319
" />
<path d="M7766 12177
L7766 12807
" />
<path d="M7491 11901
L7766 12177
" />
<path d="M6821 11901
L7491 11901
" />
<path d="M5935 12787
L6821 11901
" />
<path d="M1191 6272
L1703 6272
" />
<path d="M1703 6272
L2491 5484
" />
<path d="M2491 5484
L3357 5484
" />
<path d="M2057 9461
L2057 8870
" />
<path d="M1900 6508
L1664 6272
" />
<path d="M1900 8712
L1900 6508
" />
<path d="M2057 8870
L1900 8712
" />
<path d="M1664 6272
L1191 6272
" />
<path d="M3160 12787
L2865 12787
" />
<path d="M2865 12787
L2057 11980
" />
<path d="M2057 11980
L2057 9461
" />
</g>
<g style="fill:#000000; fill-opacity:0.0; 
stroke:#000000; stroke-width:157.48; stroke-opacity:1; 
stroke-linecap:round; stroke-linejoin:round;">
<path d="M9719 12783
L9719 12498
" />
<path d="M2865 12787
L2057 11980
" />
<path d="M2057 11980
L2057 9461
" />
<path d="M1191 6272
L1585 6272
" />
<path d="M1585 6272
L2372 5484
" />
<path d="M2372 5484
L3357 5484
" />
<path d="M1664 6272
L1191 6272
" />
</g>
<g style="fill:#000000; fill-opacity:0.0; 
stroke:#000000; stroke-width:314.961; stroke-opacity:1; 
stroke-linecap:round; stroke-linejoin:round;">
<path d="M2333 7472
L2392 7472
" />
<path d="M2392 7472
L2569 7650
" />
<path d="M2569 7650
L2569 10563
" />
<path d="M2569 10563
L3239 11232
" />
<path d="M3239 11232
L4105 11232
" />
<path d="M4105 11232
L4695 11823
" />
<path d="M4695 11823
L4813 11823
" />
<path d="M6841 13417
L6841 13378
" />
<path d="M7195 13024
L7195 12354
" />
<path d="M6841 13378
L7195 13024
" />
<path d="M17419 3598
L17609 3787
" />
<path d="M17609 3787
L17609 10090
" />
<path d="M17609 10090
L13868 13831
" />
<path d="M13868 13831
L7254 13831
" />
<path d="M7254 13831
L6841 13417
" />
<path d="M6841 13417
L6821 13398
" />
<path d="M6821 13398
L6152 13398
" />
<path d="M1191 12610
L1191 7177
" />
<path d="M1979 13398
L1191 12610
" />
<path d="M6152 13398
L1979 13398
" />
<path d="M9341 5327
L7805 3791
" />
<path d="M7805 3791
L7805 2374
" />
<path d="M7805 2374
L7431 2000
" />
<path d="M7431 2000
L7431 1587
" />
<path d="M9341 9205
L9341 5327
" />
<path d="M8022 10524
L9341 9205
" />
<path d="M7884 10524
L8022 10524
" />
<path d="M6378 11577
L6487 11468
" />
<path d="M10325 11232
L10325 11212
" />
<path d="M10089 11468
L10325 11232
" />
<path d="M6487 11468
L10089 11468
" />
<path d="M2963 11764
L3455 11764
" />
<path d="M10325 11212
L11723 9815
" />
<path d="M5699 12256
L6378 11577
" />
<path d="M3947 12256
L5699 12256
" />
<path d="M3455 11764
L3947 12256
" />
<path d="M13519 6698
L13310 6698
" />
<path d="M13310 6698
L12412 5799
" />
<path d="M10719 5799
L10128 5209
" />
<path d="M12412 5799
L10719 5799
" />
<path d="M13519 6698
L13519 6936
" />
<path d="M13519 6936
L12195 8260
" />
<path d="M12195 8260
L12195 10268
" />
<path d="M12195 10268
L12325 10398
" />
<path d="M12325 10398
L12819 10398
" />
</g>
<g style="fill:#000000; fill-opacity:1.0; 
stroke:#000000; stroke-width:100; stroke-opacity:1; 
stroke-linecap:round; stroke-linejoin:round;">
<polyline style="fill-rule:evenodd;"
points="20967,1913
20891,1928
20804,1986
20745,2074
20725,2177
20725,13915
14360,13915
17063,11212
17939,11212
18027,11426
18190,11589
18403,11677
18634,11678
18847,11590
18931,11505
19182,11505
19213,11604
19430,11682
19660,11672
19825,11604
19856,11505
19519,11168
19182,11505
18931,11505
19010,11427
19019,11405
19111,11434
19448,11098
19590,11098
19927,11434
20025,11403
20104,11186
20093,10956
20025,10792
19927,10761
19590,11098
19448,11098
19111,10761
19019,10790
19011,10769
18931,10690
19182,10690
19519,11027
19856,10690
19825,10591
19608,10513
19377,10523
19213,10591
19182,10690
18931,10690
18848,10606
18635,10518
18404,10517
18191,10606
18027,10769
17939,10982
17939,11212
17063,11212
17897,10379
17897,10379
17985,10246
17997,10186
18016,10090
18016,10090
18016,7112
18439,7112
18527,7326
18690,7489
18903,7577
19134,7578
19347,7490
19431,7405
19682,7405
19713,7504
19930,7582
20160,7572
20325,7504
20356,7405
20019,7068
19682,7405
19431,7405
19510,7327
19519,7305
19611,7334
19948,6998
20090,6998
20427,7334
20525,7303
20604,7086
20593,6856
20525,6692
20427,6661
20090,6998
19948,6998
19611,6661
19519,6690
19511,6669
19431,6590
19682,6590
20019,6927
20356,6590
20325,6491
20108,6413
19877,6423
19713,6491
19682,6590
19431,6590
19348,6506
19135,6418
18904,6417
18691,6506
18527,6669
18439,6882
18439,7112
18016,7112
18016,4097
18193,4215
18419,4260
18645,4215
18836,4087
18917,3966
19064,4129
19271,4229
19278,4230
19369,4183
19369,3648
19469,3648
19469,4183
19560,4230
19566,4229
19774,4129
19928,3958
20004,3740
19947,3648
19469,3648
19369,3648
19361,3648
19361,3548
19369,3548
19369,3012
19469,3012
19469,3548
19947,3548
20004,3455
19928,3238
19774,3066
19566,2966
19560,2965
19469,3012
19369,3012
19278,2965
19271,2966
19064,3066
18917,3229
18836,3108
18645,2980
18419,2935
18193,2980
18002,3108
17998,3113
17996,3105
17942,3020
17858,2963
17759,2943
17079,2943
16986,2960
16901,3015
16844,3098
16824,3198
16824,3998
16841,4090
16896,4175
16980,4232
17079,4252
17201,4252
17201,9922
13700,13423
7423,13423
7397,13398
7483,13312
7483,13312
7553,13207
7572,13179
7603,13024
7603,13024
7603,12612
8139,12612
8227,12826
8390,12989
8603,13077
8834,13078
9047,12990
9131,12905
9382,12905
9413,13004
9630,13082
9860,13072
10025,13004
10056,12905
9719,12568
9382,12905
9131,12905
9210,12827
9219,12805
9311,12834
9648,12498
9790,12498
10127,12834
10225,12803
10304,12586
10293,12356
10225,12192
10127,12161
9790,12498
9648,12498
9311,12161
9219,12190
9211,12169
9131,12090
9382,12090
9719,12427
10056,12090
10025,11991
9808,11913
9577,11923
9413,11991
9382,12090
9131,12090
9048,12006
8835,11918
8604,11917
8391,12006
8227,12169
8139,12382
8139,12612
7603,12612
7603,12354
7572,12198
7483,12066
7351,11978
7195,11947
7039,11978
6907,12066
6819,12198
6788,12354
6788,12855
6652,12990
2147,12990
1599,12441
1599,7823
1678,7808
1763,7753
1820,7670
1840,7571
1840,7472
1926,7472
1957,7628
2045,7760
2162,7839
2162,10563
2162,10563
2193,10719
2281,10851
2816,11386
2807,11387
2675,11476
2586,11608
2555,11764
2586,11920
2675,12052
2807,12140
2963,12171
3286,12171
3659,12544
3659,12544
3763,12613
3791,12632
3947,12663
3947,12663
5699,12663
5699,12663
5855,12632
5987,12544
6655,11876
10089,11876
10089,11876
10245,11845
10377,11757
10613,11520
10613,11520
10653,11461
11797,10316
11819,10424
11907,10556
12037,10686
12037,10686
12116,10739
12169,10774
12325,10805
12384,10805
12390,10815
12514,10898
12390,10980
12262,11172
12217,11398
12262,11623
12390,11815
12582,11943
12807,11988
12830,11988
13056,11943
13248,11815
13319,11708
13390,11815
13582,11943
13807,11988
13830,11988
14056,11943
14248,11815
14376,11623
14420,11398
14376,11172
14248,10980
14124,10898
14248,10815
14376,10623
14420,10398
14376,10172
14248,9980
14120,9895
14169,9873
14324,9703
14392,9539
14344,9448
13869,9448
13869,9455
13769,9455
13769,9448
12869,9448
12869,9455
12769,9455
12769,9448
12761,9448
12761,9348
12769,9348
12769,8870
12869,8870
12869,9348
13769,9348
13769,8872
13869,8872
13869,9348
14344,9348
14392,9256
14324,9092
14244,9005
15082,9005
15113,9104
15330,9182
15560,9172
15725,9104
15756,9005
15419,8668
15082,9005
14244,9005
14169,8922
13960,8825
13869,8872
13769,8872
13678,8825
13469,8922
13403,8994
13371,8916
13300,8846
13209,8808
12931,8808
12869,8870
12769,8870
12706,8808
12603,8808
12603,8509
14834,8509
14845,8739
14913,8903
15011,8934
15348,8598
15490,8598
15827,8934
15919,8905
15927,8926
16090,9089
16303,9177
16534,9178
16747,9090
16910,8927
16999,8713
16999,8483
16911,8269
16748,8106
16535,8018
16304,8017
16091,8106
15927,8269
15919,8290
15827,8261
15490,8598
15348,8598
15011,8261
14913,8292
14834,8509
12603,8509
12603,8429
12841,8190
15082,8190
15419,8527
15756,8190
15725,8091
15508,8013
15277,8023
15113,8091
15082,8190
12841,8190
13807,7224
13824,7199
13867,7191
13953,7136
14010,7053
14030,6953
14030,6442
14012,6349
13957,6264
13874,6207
13775,6187
13376,6187
12700,5511
12568,5423
12412,5392
12412,5392
10888,5392
10416,4920
10284,4832
10128,4801
9972,4832
9840,4920
9752,5053
9723,5198
9717,5171
9676,5109
9629,5039
9629,5039
8213,3622
8213,2374
8213,2374
8182,2218
8145,2163
8094,2086
8094,2086
7839,1831
7839,1587
7808,1431
7720,1298
7587,1210
7431,1179
7276,1210
7143,1298
7055,1431
7024,1587
7024,2000
7024,2000
7055,2156
7143,2288
7398,2543
7398,3791
7398,3791
7429,3947
7517,4079
8933,5495
8933,5780
8828,5674
8628,5591
8411,5591
8210,5674
8057,5827
7973,6028
7973,6245
8056,6445
8209,6599
8410,6682
8627,6682
8827,6599
8933,6493
8933,7702
8828,7596
8628,7513
8411,7513
8210,7596
8057,7749
7973,7950
7973,8167
8056,8367
8209,8521
8410,8604
8627,8604
8827,8521
8933,8415
8933,9036
7846,10124
7728,10147
7596,10235
7508,10368
7477,10524
7508,10679
7596,10812
7728,10900
7884,10931
8022,10931
8022,10931
8178,10900
8310,10812
9629,9493
9629,9493
9686,9407
9717,9361
9748,9205
9748,7051
11267,7051
11289,7142
11479,7208
11680,7197
11812,7142
11834,7051
11550,6768
11267,7051
9748,7051
9748,6626
11039,6626
11051,6827
11106,6959
11196,6981
11480,6698
11621,6698
11904,6981
11995,6959
12061,6769
12050,6568
11995,6436
11904,6414
11621,6698
11480,6698
11196,6414
11106,6436
11039,6626
9748,6626
9748,5347
9752,5364
9840,5497
10431,6087
10431,6087
10510,6140
10563,6176
10719,6207
11401,6207
11289,6253
11267,6344
11550,6627
11834,6344
11812,6253
11679,6207
12243,6207
12958,6921
11907,7972
11819,8104
11788,8260
11788,8260
11788,9420
11723,9407
11567,9438
11435,9527
10037,10924
9997,10984
9920,11061
6487,11061
6487,11061
6331,11092
6198,11180
6198,11180
6090,11289
6090,11289
5530,11848
5216,11848
5221,11823
5190,11667
5101,11535
4969,11446
4877,11428
4393,10944
4261,10856
4105,10825
4105,10825
3407,10825
2977,10394
2977,7650
2977,7650
2946,7494
2932,7472
2857,7361
2857,7361
2680,7184
2548,7096
2392,7065
2392,7065
2333,7065
2177,7096
2045,7184
1957,7316
1926,7472
1840,7472
1840,6783
1830,6728
1835,6715
1835,6384
1773,6322
1241,6322
1241,6329
1141,6329
1141,6322
1133,6322
1133,6222
1141,6222
1141,6214
1241,6214
1241,6222
1773,6222
1835,6159
1835,5828
1829,5814
1840,5760
1840,4972
1828,4911
1840,4854
1840,4067
1828,4006
1840,3949
1840,3161
1828,3100
1840,3043
1840,2417
3126,2417
3191,2574
3311,2694
3468,2759
3637,2760
3794,2695
3915,2575
3980,2418
3980,2417
4858,2417
4923,2574
5043,2694
5200,2759
5369,2760
5526,2695
5647,2575
5712,2418
5712,2248
5647,2091
5527,1971
5370,1906
5200,1905
5043,1970
4923,2090
4858,2247
4858,2417
3980,2417
3980,2248
3915,2091
3795,1971
3638,1906
3468,1905
3311,1970
3191,2090
3126,2247
3126,2417
1840,2417
1840,2256
1822,2163
1768,2078
1684,2021
1585,2001
919,2001
910,1986
822,1928
769,1917
769,847
20968,847
20967,1913
" /> 
</g>
<g style="fill:#FFFFFF; fill-opacity:1.0; 
stroke:#FFFFFF; stroke-width:100; stroke-opacity:1; 
stroke-linecap:round; stroke-linejoin:round;">
</g>
<g style="fill:#FFFFFF; fill-opacity:1.0; 
stroke:#FFFFFF; stroke-width:0; stroke-opacity:1; 
stroke-linecap:round; stroke-linejoin:round;">
<circle cx="3160.31" cy="12787.8" r="78.7402" /> 
</g>
<g style="fill:#FFFFFF; fill-opacity:1.0; 
stroke:#FFFFFF; stroke-width:39.3701; stroke-opacity:1; 
stroke-linecap:round; stroke-linejoin:round;">
</g>
<g style="fill:#FFFFFF; fill-opacity:1.0; 
stroke:#FFFFFF; stroke-width:0; stroke-opacity:1; 
stroke-linecap:round; stroke-linejoin:round;">
<circle cx="3357.16" cy="5484.65" r="78.7402" /> 
</g>
<g style="fill:#FFFFFF; fill-opacity:1.0; 
stroke:#FFFFFF; stroke-width:39.3701; stroke-opacity:1; 
stroke-linecap:round; stroke-linejoin:round;">
</g>
<g style="fill:#FFFFFF; fill-opacity:1.0; 
stroke:#FFFFFF; stroke-width:0; stroke-opacity:1; 
stroke-linecap:round; stroke-linejoin:round;">
<circle cx="2057.95" cy="9461.02" r="78.7402" /> 
</g>
<g style="fill:#FFFFFF; fill-opacity:1.0; 
stroke:#FFFFFF; stroke-width:39.3701; stroke-opacity:1; 
stroke-linecap:round; stroke-linejoin:round;">
</g>
<g style="fill:#FFFFFF; fill-opacity:1.0; 
stroke:#FFFFFF; stroke-width:0; stroke-opacity:1; 
stroke-linecap:round; stroke-linejoin:round;">
<circle cx="2333.54" cy="7472.84" r="78.7402" /> 
</g>
<g style="fill:#FFFFFF; fill-opacity:1.0; 
stroke:#FFFFFF; stroke-width:39.3701; stroke-opacity:1; 
stroke-linecap:round; stroke-linejoin:round;">
</g>
<g style="fill:#FFFFFF; fill-opacity:1.0; 
stroke:#FFFFFF; stroke-width:0; stroke-opacity:1; 
stroke-linecap:round; stroke-linejoin:round;">
<circle cx="4813.85" cy="11823.2" r="78.7402" /> 
</g>
<g style="fill:#FFFFFF; fill-opacity:1.0; 
stroke:#FFFFFF; stroke-width:39.3701; stroke-opacity:1; 
stroke-linecap:round; stroke-linejoin:round;">
</g>
<g style="fill:#FFFFFF; fill-opacity:1.0; 
stroke:#FFFFFF; stroke-width:0; stroke-opacity:1; 
stroke-linecap:round; stroke-linejoin:round;">
<circle cx="7195.74" cy="12354.7" r="78.7402" /> 
</g>
<g style="fill:#FFFFFF; fill-opacity:1.0; 
stroke:#FFFFFF; stroke-width:39.3701; stroke-opacity:1; 
stroke-linecap:round; stroke-linejoin:round;">
</g>
<g style="fill:#FFFFFF; fill-opacity:1.0; 
stroke:#FFFFFF; stroke-width:0; stroke-opacity:1; 
stroke-linecap:round; stroke-linejoin:round;">
<circle cx="7431.96" cy="1587.01" r="78.7402" /> 
</g>
<g style="fill:#FFFFFF; fill-opacity:1.0; 
stroke:#FFFFFF; stroke-width:39.3701; stroke-opacity:1; 
stroke-linecap:round; stroke-linejoin:round;">
</g>
<g style="fill:#FFFFFF; fill-opacity:1.0; 
stroke:#FFFFFF; stroke-width:0; stroke-opacity:1; 
stroke-linecap:round; stroke-linejoin:round;">
<circle cx="7884.72" cy="10524" r="78.7402" /> 
</g>
<g style="fill:#FFFFFF; fill-opacity:1.0; 
stroke:#FFFFFF; stroke-width:39.3701; stroke-opacity:1; 
stroke-linecap:round; stroke-linejoin:round;">
</g>
<g style="fill:#FFFFFF; fill-opacity:1.0; 
stroke:#FFFFFF; stroke-width:0; stroke-opacity:1; 
stroke-linecap:round; stroke-linejoin:round;">
<circle cx="11723.3" cy="9815.35" r="78.7402" /> 
</g>
<g style="fill:#FFFFFF; fill-opacity:1.0; 
stroke:#FFFFFF; stroke-width:39.3701; stroke-opacity:1; 
stroke-linecap:round; stroke-linejoin:round;">
</g>
<g style="fill:#FFFFFF; fill-opacity:1.0; 
stroke:#FFFFFF; stroke-width:0; stroke-opacity:1; 
stroke-linecap:round; stroke-linejoin:round;">
<circle cx="2963.46" cy="11764.2" r="78.7402" /> 
</g>
<g style="fill:#FFFFFF; fill-opacity:1.0; 
stroke:#FFFFFF; stroke-width:39.3701; stroke-opacity:1; 
stroke-linecap:round; stroke-linejoin:round;">
</g>
<g style="fill:#FFFFFF; fill-opacity:1.0; 
stroke:#FFFFFF; stroke-width:0; stroke-opacity:1; 
stroke-linecap:round; stroke-linejoin:round;">
<circle cx="10128.8" cy="5209.06" r="78.7402" /> 
</g>
<g style="fill:#FFFFFF; fill-opacity:1.0; 
stroke:#FFFFFF; stroke-width:39.3701; stroke-opacity:1; 
stroke-linecap:round; stroke-linejoin:round;">
</g>
<g style="fill:#FFFFFF; fill-opacity:1.0; 
stroke:#FFFFFF; stroke-width:0; stroke-opacity:1; 
stroke-linecap:round; stroke-linejoin:round;">
<circle cx="1191.81" cy="2650" r="200" /> 
</g>
<g style="fill:#FFFFFF; fill-opacity:1.0; 
stroke:#FFFFFF; stroke-width:39.3701; stroke-opacity:1; 
stroke-linecap:round; stroke-linejoin:round;">
</g>
<g style="fill:#FFFFFF; fill-opacity:1.0; 
stroke:#FFFFFF; stroke-width:0; stroke-opacity:1; 
stroke-linecap:round; stroke-linejoin:round;">
<circle cx="1191.81" cy="3555.51" r="200" /> 
</g>
<g style="fill:#FFFFFF; fill-opacity:1.0; 
stroke:#FFFFFF; stroke-width:39.3701; stroke-opacity:1; 
stroke-linecap:round; stroke-linejoin:round;">
</g>
<g style="fill:#FFFFFF; fill-opacity:1.0; 
stroke:#FFFFFF; stroke-width:0; stroke-opacity:1; 
stroke-linecap:round; stroke-linejoin:round;">
<circle cx="1191.81" cy="4461.02" r="200" /> 
</g>
<g style="fill:#FFFFFF; fill-opacity:1.0; 
stroke:#FFFFFF; stroke-width:39.3701; stroke-opacity:1; 
stroke-linecap:round; stroke-linejoin:round;">
</g>
<g style="fill:#FFFFFF; fill-opacity:1.0; 
stroke:#FFFFFF; stroke-width:0; stroke-opacity:1; 
stroke-linecap:round; stroke-linejoin:round;">
<circle cx="1191.81" cy="5366.54" r="200" /> 
</g>
<g style="fill:#FFFFFF; fill-opacity:1.0; 
stroke:#FFFFFF; stroke-width:39.3701; stroke-opacity:1; 
stroke-linecap:round; stroke-linejoin:round;">
</g>
<g style="fill:#FFFFFF; fill-opacity:1.0; 
stroke:#FFFFFF; stroke-width:0; stroke-opacity:1; 
stroke-linecap:round; stroke-linejoin:round;">
<circle cx="1191.81" cy="6272.05" r="200" /> 
</g>
<g style="fill:#FFFFFF; fill-opacity:1.0; 
stroke:#FFFFFF; stroke-width:39.3701; stroke-opacity:1; 
stroke-linecap:round; stroke-linejoin:round;">
</g>
<g style="fill:#FFFFFF; fill-opacity:1.0; 
stroke:#FFFFFF; stroke-width:0; stroke-opacity:1; 
stroke-linecap:round; stroke-linejoin:round;">
<circle cx="1191.81" cy="7177.56" r="200" /> 
</g>
<g style="fill:#FFFFFF; fill-opacity:1.0; 
stroke:#FFFFFF; stroke-width:39.3701; stroke-opacity:1; 
stroke-linecap:round; stroke-linejoin:round;">
</g>
<g style="fill:#FFFFFF; fill-opacity:1.0; 
stroke:#FFFFFF; stroke-width:0; stroke-opacity:1; 
stroke-linecap:round; stroke-linejoin:round;">
<circle cx="8719.37" cy="12498" r="160" /> 
</g>
<g style="fill:#FFFFFF; fill-opacity:1.0; 
stroke:#FFFFFF; stroke-width:39.3701; stroke-opacity:1; 
stroke-linecap:round; stroke-linejoin:round;">
</g>
<g style="fill:#FFFFFF; fill-opacity:1.0; 
stroke:#FFFFFF; stroke-width:0; stroke-opacity:1; 
stroke-linecap:round; stroke-linejoin:round;">
<circle cx="9719.37" cy="12498" r="160" /> 
</g>
<g style="fill:#FFFFFF; fill-opacity:1.0; 
stroke:#FFFFFF; stroke-width:39.3701; stroke-opacity:1; 
stroke-linecap:round; stroke-linejoin:round;">
</g>
<g style="fill:#FFFFFF; fill-opacity:1.0; 
stroke:#FFFFFF; stroke-width:0; stroke-opacity:1; 
stroke-linecap:round; stroke-linejoin:round;">
<circle cx="18519.4" cy="11098" r="160" /> 
</g>
<g style="fill:#FFFFFF; fill-opacity:1.0; 
stroke:#FFFFFF; stroke-width:39.3701; stroke-opacity:1; 
stroke-linecap:round; stroke-linejoin:round;">
</g>
<g style="fill:#FFFFFF; fill-opacity:1.0; 
stroke:#FFFFFF; stroke-width:0; stroke-opacity:1; 
stroke-linecap:round; stroke-linejoin:round;">
<circle cx="19519.4" cy="11098" r="160" /> 
</g>
<g style="fill:#FFFFFF; fill-opacity:1.0; 
stroke:#FFFFFF; stroke-width:39.3701; stroke-opacity:1; 
stroke-linecap:round; stroke-linejoin:round;">
</g>
<g style="fill:#FFFFFF; fill-opacity:1.0; 
stroke:#FFFFFF; stroke-width:0; stroke-opacity:1; 
stroke-linecap:round; stroke-linejoin:round;">
<circle cx="16419.4" cy="8598.03" r="160" /> 
</g>
<g style="fill:#FFFFFF; fill-opacity:1.0; 
stroke:#FFFFFF; stroke-width:39.3701; stroke-opacity:1; 
stroke-linecap:round; stroke-linejoin:round;">
</g>
<g style="fill:#FFFFFF; fill-opacity:1.0; 
stroke:#FFFFFF; stroke-width:0; stroke-opacity:1; 
stroke-linecap:round; stroke-linejoin:round;">
<circle cx="15419.4" cy="8598.03" r="160" /> 
</g>
<g style="fill:#FFFFFF; fill-opacity:1.0; 
stroke:#FFFFFF; stroke-width:39.3701; stroke-opacity:1; 
stroke-linecap:round; stroke-linejoin:round;">
</g>
<g style="fill:#FFFFFF; fill-opacity:1.0; 
stroke:#FFFFFF; stroke-width:0; stroke-opacity:1; 
stroke-linecap:round; stroke-linejoin:round;">
<circle cx="19019.4" cy="6998.03" r="160" /> 
</g>
<g style="fill:#FFFFFF; fill-opacity:1.0; 
stroke:#FFFFFF; stroke-width:39.3701; stroke-opacity:1; 
stroke-linecap:round; stroke-linejoin:round;">
</g>
<g style="fill:#FFFFFF; fill-opacity:1.0; 
stroke:#FFFFFF; stroke-width:0; stroke-opacity:1; 
stroke-linecap:round; stroke-linejoin:round;">
<circle cx="20019.4" cy="6998.03" r="160" /> 
</g>
<g style="fill:#FFFFFF; fill-opacity:1.0; 
stroke:#FFFFFF; stroke-width:39.3701; stroke-opacity:1; 
stroke-linecap:round; stroke-linejoin:round;">
</g>
<g style="fill:#FFFFFF; fill-opacity:1.0; 
stroke:#FFFFFF; stroke-width:0; stroke-opacity:1; 
stroke-linecap:round; stroke-linejoin:round;">
<circle cx="17419.4" cy="3598.03" r="200" /> 
</g>
<g style="fill:#FFFFFF; fill-opacity:1.0; 
stroke:#FFFFFF; stroke-width:39.3701; stroke-opacity:1; 
stroke-linecap:round; stroke-linejoin:round;">
</g>
<g style="fill:#FFFFFF; fill-opacity:1.0; 
stroke:#FFFFFF; stroke-width:0; stroke-opacity:1; 
stroke-linecap:round; stroke-linejoin:round;">
<circle cx="18419.4" cy="3598.03" r="200" /> 
</g>
<g style="fill:#FFFFFF; fill-opacity:1.0; 
stroke:#FFFFFF; stroke-width:39.3701; stroke-opacity:1; 
stroke-linecap:round; stroke-linejoin:round;">
</g>
<g style="fill:#FFFFFF; fill-opacity:1.0; 
stroke:#FFFFFF; stroke-width:0; stroke-opacity:1; 
stroke-linecap:round; stroke-linejoin:round;">
<circle cx="19419.4" cy="3598.03" r="200" /> 
</g>
<g style="fill:#FFFFFF; fill-opacity:1.0; 
stroke:#FFFFFF; stroke-width:39.3701; stroke-opacity:1; 
stroke-linecap:round; stroke-linejoin:round;">
</g>
<g style="fill:#FFFFFF; fill-opacity:1.0; 
stroke:#FFFFFF; stroke-width:0; stroke-opacity:1; 
stroke-linecap:round; stroke-linejoin:round;">
<circle cx="12819.4" cy="9398.03" r="200" /> 
</g>
<g style="fill:#FFFFFF; fill-opacity:1.0; 
stroke:#FFFFFF; stroke-width:39.3701; stroke-opacity:1; 
stroke-linecap:round; stroke-linejoin:round;">
</g>
<g style="fill:#FFFFFF; fill-opacity:1.0; 
stroke:#FFFFFF; stroke-width:0; stroke-opacity:1; 
stroke-linecap:round; stroke-linejoin:round;">
<circle cx="13819.4" cy="9398.03" r="200" /> 
</g>
<g style="fill:#FFFFFF; fill-opacity:1.0; 
stroke:#FFFFFF; stroke-width:39.3701; stroke-opacity:1; 
stroke-linecap:round; stroke-linejoin:round;">
</g>
<g style="fill:#FFFFFF; fill-opacity:1.0; 
stroke:#FFFFFF; stroke-width:0; stroke-opacity:1; 
stroke-linecap:round; stroke-linejoin:round;">
<circle cx="12819.4" cy="10398" r="200" /> 
</g>
<g style="fill:#FFFFFF; fill-opacity:1.0; 
stroke:#FFFFFF; stroke-width:39.3701; stroke-opacity:1; 
stroke-linecap:round; stroke-linejoin:round;">
</g>
<g style="fill:#FFFFFF; fill-opacity:1.0; 
stroke:#FFFFFF; stroke-width:0; stroke-opacity:1; 
stroke-linecap:round; stroke-linejoin:round;">
<circle cx="13819.4" cy="10398" r="200" /> 
</g>
<g style="fill:#FFFFFF; fill-opacity:1.0; 
stroke:#FFFFFF; stroke-width:39.3701; stroke-opacity:1; 
stroke-linecap:round; stroke-linejoin:round;">
</g>
<g style="fill:#FFFFFF; fill-opacity:1.0; 
stroke:#FFFFFF; stroke-width:0; stroke-opacity:1; 
stroke-linecap:round; stroke-linejoin:round;">
<circle cx="12819.4" cy="11398" r="200" /> 
</g>
<g style="fill:#FFFFFF; fill-opacity:1.0; 
stroke:#FFFFFF; stroke-width:39.3701; stroke-opacity:1; 
stroke-linecap:round; stroke-linejoin:round;">
</g>
<g style="fill:#FFFFFF; fill-opacity:1.0; 
stroke:#FFFFFF; stroke-width:0; stroke-opacity:1; 
stroke-linecap:round; stroke-linejoin:round;">
<circle cx="13819.4" cy="11398" r="200" /> 
</g>
<g style="fill:#FFFFFF; fill-opacity:1.0; 
stroke:#FFFFFF; stroke-width:39.3701; stroke-opacity:1; 
stroke-linecap:round; stroke-linejoin:round;">
</g>
<g style="fill:#FFFFFF; fill-opacity:1.0; 
stroke:#FFFFFF; stroke-width:0; stroke-opacity:1; 
stroke-linecap:round; stroke-linejoin:round;">
<circle cx="13519.4" cy="6698.03" r="157.48" /> 
</g>
<g style="fill:#FFFFFF; fill-opacity:1.0; 
stroke:#FFFFFF; stroke-width:39.3701; stroke-opacity:1; 
stroke-linecap:round; stroke-linejoin:round;">
</g>
<g style="fill:#FFFFFF; fill-opacity:1.0; 
stroke:#FFFFFF; stroke-width:0; stroke-opacity:1; 
stroke-linecap:round; stroke-linejoin:round;">
<circle cx="11550.9" cy="6698.03" r="157.48" /> 
</g>
<g style="fill:#FFFFFF; fill-opacity:1.0; 
stroke:#FFFFFF; stroke-width:39.3701; stroke-opacity:1; 
stroke-linecap:round; stroke-linejoin:round;">
</g>
<g style="fill:#FFFFFF; fill-opacity:1.0; 
stroke:#FFFFFF; stroke-width:0; stroke-opacity:1; 
stroke-linecap:round; stroke-linejoin:round;">
<circle cx="5285.37" cy="2333.03" r="177" /> 
</g>
<g style="fill:#FFFFFF; fill-opacity:1.0; 
stroke:#FFFFFF; stroke-width:39.3701; stroke-opacity:1; 
stroke-linecap:round; stroke-linejoin:round;">
</g>
<g style="fill:#FFFFFF; fill-opacity:1.0; 
stroke:#FFFFFF; stroke-width:0; stroke-opacity:1; 
stroke-linecap:round; stroke-linejoin:round;">
<circle cx="3553.37" cy="2333.03" r="177" /> 
</g>
<g style="fill:#FFFFFF; fill-opacity:1.0; 
stroke:#FFFFFF; stroke-width:39.3701; stroke-opacity:1; 
stroke-linecap:round; stroke-linejoin:round;">
</g>
<g style="fill:#FFFFFF; fill-opacity:1.0; 
stroke:#FFFFFF; stroke-width:0; stroke-opacity:1; 
stroke-linecap:round; stroke-linejoin:round;">
<circle cx="8519.37" cy="6137.03" r="157.5" /> 
</g>
<g style="fill:#FFFFFF; fill-opacity:1.0; 
stroke:#FFFFFF; stroke-width:39.3701; stroke-opacity:1; 
stroke-linecap:round; stroke-linejoin:round;">
</g>
<g style="fill:#FFFFFF; fill-opacity:1.0; 
stroke:#FFFFFF; stroke-width:0; stroke-opacity:1; 
stroke-linecap:round; stroke-linejoin:round;">
<circle cx="8519.37" cy="8059.03" r="157.5" /> 
</g>
<g style="fill:#FFFFFF; fill-opacity:1.0; 
stroke:#FFFFFF; stroke-width:39.3701; stroke-opacity:1; 
stroke-linecap:round; stroke-linejoin:round;">
</g>
<g style="fill:#000000; fill-opacity:1.0; 
stroke:#000000; stroke-width:39.3701; stroke-opacity:1; 
stroke-linecap:round; stroke-linejoin:round;">
</g> 
</svg>
