<?xml version="1.0" standalone="no"?>
 <!DOCTYPE svg PUBLIC "-//W3C//DTD SVG 1.1//EN" 
 "http://www.w3.org/Graphics/SVG/1.1/DTD/svg11.dtd"> 
<svg xmlns="http://www.w3.org/2000/svg" version="1.1" 
    width="5.34162cm" height="3.65252cm" viewBox="0 0 21030 14380 ">
<title>SVG Picture created as cam-chassis-F_Cu.svg date 2015/07/29 04:07:03 </title>
  <desc>Picture generated by PCBNEW </desc>
<g style="fill:#000000; fill-opacity:1;stroke:#000000; stroke-opacity:1;
stroke-linecap:round; stroke-linejoin:round; "
 transform="translate(0 0) scale(1 1)">
</g>
<g style="fill:#000000; fill-opacity:0.0; 
stroke:#000000; stroke-width:-0.000393701; stroke-opacity:1; 
stroke-linecap:round; stroke-linejoin:round;">
</g>
<g style="fill:#000000; fill-opacity:0.0; 
stroke:#000000; stroke-width:39.3701; stroke-opacity:1; 
stroke-linecap:round; stroke-linejoin:round;">
<path d="M20310 14185
L20310 13398
" />
<path d="M35 14185
L20310 14185
" />
<path d="M35 13398
L35 14185
" />
<path d="M20310 13398
L20310 2177
" />
<path d="M35 2177
L35 13398
" />
<path d="M20310 577
L35 577
" />
</g>
<g style="fill:#000000; fill-opacity:0.0; 
stroke:#000000; stroke-width:0; stroke-opacity:1; 
stroke-linecap:round; stroke-linejoin:round;">
</g>
<g style="fill:#000000; fill-opacity:1.0; 
stroke:#000000; stroke-width:0; stroke-opacity:1; 
stroke-linecap:round; stroke-linejoin:round;">
<polyline style="fill-rule:evenodd;"
points="20231,3043
20231,2256
19444,2256
19444,3043
20231,3043
" /> 
<polyline style="fill-rule:evenodd;"
points="20231,3949
20231,3161
19444,3161
19444,3949
20231,3949
" /> 
<polyline style="fill-rule:evenodd;"
points="20231,4854
20231,4067
19444,4067
19444,4854
20231,4854
" /> 
<polyline style="fill-rule:evenodd;"
points="20231,5760
20231,4972
19444,4972
19444,5760
20231,5760
" /> 
<polyline style="fill-rule:evenodd;"
points="20231,6665
20231,5878
19444,5878
19444,6665
20231,6665
" /> 
<polyline style="fill-rule:evenodd;"
points="20231,7571
20231,6783
19444,6783
19444,7571
20231,7571
" /> 
<circle cx="12310.6" cy="12498" r="330" /> 
</g>
<g style="fill:#000000; fill-opacity:1.0; 
stroke:#000000; stroke-width:39.3701; stroke-opacity:1; 
stroke-linecap:round; stroke-linejoin:round;">
</g>
<g style="fill:#000000; fill-opacity:1.0; 
stroke:#000000; stroke-width:0; stroke-opacity:1; 
stroke-linecap:round; stroke-linejoin:round;">
<circle cx="11310.6" cy="12498" r="330" /> 
</g>
<g style="fill:#000000; fill-opacity:1.0; 
stroke:#000000; stroke-width:39.3701; stroke-opacity:1; 
stroke-linecap:round; stroke-linejoin:round;">
</g>
<g style="fill:#000000; fill-opacity:1.0; 
stroke:#000000; stroke-width:0; stroke-opacity:1; 
stroke-linecap:round; stroke-linejoin:round;">
<circle cx="2510.63" cy="11098" r="330" /> 
</g>
<g style="fill:#000000; fill-opacity:1.0; 
stroke:#000000; stroke-width:39.3701; stroke-opacity:1; 
stroke-linecap:round; stroke-linejoin:round;">
</g>
<g style="fill:#000000; fill-opacity:1.0; 
stroke:#000000; stroke-width:0; stroke-opacity:1; 
stroke-linecap:round; stroke-linejoin:round;">
<circle cx="1510.63" cy="11098" r="330" /> 
</g>
<g style="fill:#000000; fill-opacity:1.0; 
stroke:#000000; stroke-width:39.3701; stroke-opacity:1; 
stroke-linecap:round; stroke-linejoin:round;">
</g>
<g style="fill:#000000; fill-opacity:1.0; 
stroke:#000000; stroke-width:0; stroke-opacity:1; 
stroke-linecap:round; stroke-linejoin:round;">
<circle cx="4610.63" cy="8598.03" r="330" /> 
</g>
<g style="fill:#000000; fill-opacity:1.0; 
stroke:#000000; stroke-width:39.3701; stroke-opacity:1; 
stroke-linecap:round; stroke-linejoin:round;">
</g>
<g style="fill:#000000; fill-opacity:1.0; 
stroke:#000000; stroke-width:0; stroke-opacity:1; 
stroke-linecap:round; stroke-linejoin:round;">
<circle cx="5610.63" cy="8598.03" r="330" /> 
</g>
<g style="fill:#000000; fill-opacity:1.0; 
stroke:#000000; stroke-width:39.3701; stroke-opacity:1; 
stroke-linecap:round; stroke-linejoin:round;">
</g>
<g style="fill:#000000; fill-opacity:1.0; 
stroke:#000000; stroke-width:0; stroke-opacity:1; 
stroke-linecap:round; stroke-linejoin:round;">
<circle cx="2010.63" cy="6998.03" r="330" /> 
</g>
<g style="fill:#000000; fill-opacity:1.0; 
stroke:#000000; stroke-width:39.3701; stroke-opacity:1; 
stroke-linecap:round; stroke-linejoin:round;">
</g>
<g style="fill:#000000; fill-opacity:1.0; 
stroke:#000000; stroke-width:0; stroke-opacity:1; 
stroke-linecap:round; stroke-linejoin:round;">
<circle cx="1010.63" cy="6998.03" r="330" /> 
</g>
<g style="fill:#000000; fill-opacity:1.0; 
stroke:#000000; stroke-width:39.3701; stroke-opacity:1; 
stroke-linecap:round; stroke-linejoin:round;">
</g>
<g style="fill:#000000; fill-opacity:1.0; 
stroke:#000000; stroke-width:0; stroke-opacity:1; 
stroke-linecap:round; stroke-linejoin:round;">
<polyline style="fill-rule:evenodd;"
points="14464,10415
14464,10632
15094,10632
15094,10415
14464,10415
" /> 
<polyline style="fill-rule:evenodd;"
points="14464,10100
14464,10317
15094,10317
15094,10100
14464,10100
" /> 
<polyline style="fill-rule:evenodd;"
points="14464,9785
14464,10002
15094,10002
15094,9785
14464,9785
" /> 
<polyline style="fill-rule:evenodd;"
points="14464,9470
14464,9687
15094,9687
15094,9470
14464,9470
" /> 
<polyline style="fill-rule:evenodd;"
points="14464,9155
14464,9372
15094,9372
15094,9155
14464,9155
" /> 
<polyline style="fill-rule:evenodd;"
points="14464,8840
14464,9057
15094,9057
15094,8840
14464,8840
" /> 
<polyline style="fill-rule:evenodd;"
points="14464,8525
14464,8742
15094,8742
15094,8525
14464,8525
" /> 
<polyline style="fill-rule:evenodd;"
points="14464,8211
14464,8427
15094,8427
15094,8211
14464,8211
" /> 
<polyline style="fill-rule:evenodd;"
points="15458,7433
15241,7433
15241,8063
15458,8063
15458,7433
" /> 
<polyline style="fill-rule:evenodd;"
points="15773,7433
15556,7433
15556,8063
15773,8063
15773,7433
" /> 
<polyline style="fill-rule:evenodd;"
points="16088,7433
15871,7433
15871,8063
16088,8063
16088,7433
" /> 
<polyline style="fill-rule:evenodd;"
points="16403,7433
16186,7433
16186,8063
16403,8063
16403,7433
" /> 
<polyline style="fill-rule:evenodd;"
points="16718,7433
16501,7433
16501,8063
16718,8063
16718,7433
" /> 
<polyline style="fill-rule:evenodd;"
points="17033,7433
16816,7433
16816,8063
17033,8063
17033,7433
" /> 
<polyline style="fill-rule:evenodd;"
points="17348,7433
17131,7433
17131,8063
17348,8063
17348,7433
" /> 
<polyline style="fill-rule:evenodd;"
points="17662,7433
17446,7433
17446,8063
17662,8063
17662,7433
" /> 
<polyline style="fill-rule:evenodd;"
points="17810,8211
17810,8427
18440,8427
18440,8211
17810,8211
" /> 
<polyline style="fill-rule:evenodd;"
points="17810,8525
17810,8742
18440,8742
18440,8525
17810,8525
" /> 
<polyline style="fill-rule:evenodd;"
points="17810,8840
17810,9057
18440,9057
18440,8840
17810,8840
" /> 
<polyline style="fill-rule:evenodd;"
points="17810,9155
17810,9372
18440,9372
18440,9155
17810,9155
" /> 
<polyline style="fill-rule:evenodd;"
points="17810,9470
17810,9687
18440,9687
18440,9470
17810,9470
" /> 
<polyline style="fill-rule:evenodd;"
points="17810,9785
17810,10002
18440,10002
18440,9785
17810,9785
" /> 
<polyline style="fill-rule:evenodd;"
points="17810,10100
17810,10317
18440,10317
18440,10100
17810,10100
" /> 
<polyline style="fill-rule:evenodd;"
points="17810,10415
17810,10632
18440,10632
18440,10415
17810,10415
" /> 
<polyline style="fill-rule:evenodd;"
points="17662,10779
17446,10779
17446,11409
17662,11409
17662,10779
" /> 
<polyline style="fill-rule:evenodd;"
points="17348,10779
17131,10779
17131,11409
17348,11409
17348,10779
" /> 
<polyline style="fill-rule:evenodd;"
points="17033,10779
16816,10779
16816,11409
17033,11409
17033,10779
" /> 
<polyline style="fill-rule:evenodd;"
points="16718,10779
16501,10779
16501,11409
16718,11409
16718,10779
" /> 
<polyline style="fill-rule:evenodd;"
points="16403,10779
16186,10779
16186,11409
16403,11409
16403,10779
" /> 
<polyline style="fill-rule:evenodd;"
points="16088,10779
15871,10779
15871,11409
16088,11409
16088,10779
" /> 
<polyline style="fill-rule:evenodd;"
points="15773,10779
15556,10779
15556,11409
15773,11409
15773,10779
" /> 
<polyline style="fill-rule:evenodd;"
points="15458,10779
15241,10779
15241,11409
15458,11409
15458,10779
" /> 
<polyline style="fill-rule:evenodd;"
points="3270,3998
3950,3998
3950,3198
3270,3198
3270,3998
" /> 
</g>
<g style="fill:#000000; fill-opacity:1.0; 
stroke:#000000; stroke-width:680; stroke-opacity:1; 
stroke-linecap:round; stroke-linejoin:round;">
</g>
<g style="fill:#000000; fill-opacity:0.0; 
stroke:#000000; stroke-width:680; stroke-opacity:1; 
stroke-linecap:round; stroke-linejoin:round;">
<path d="M2610 3658
L2610 3538
" />
<path d="M1610 3658
L1610 3538
" />
</g>
<g style="fill:#000000; fill-opacity:0.0; 
stroke:#000000; stroke-width:0; stroke-opacity:1; 
stroke-linecap:round; stroke-linejoin:round;">
</g>
<g style="fill:#000000; fill-opacity:1.0; 
stroke:#000000; stroke-width:0; stroke-opacity:1; 
stroke-linecap:round; stroke-linejoin:round;">
<polyline style="fill-rule:evenodd;"
points="8550,9738
8550,9058
7870,9058
7870,9738
8550,9738
" /> 
</g>
<g style="fill:#000000; fill-opacity:1.0; 
stroke:#000000; stroke-width:680; stroke-opacity:1; 
stroke-linecap:round; stroke-linejoin:round;">
</g>
<g style="fill:#000000; fill-opacity:0.0; 
stroke:#000000; stroke-width:680; stroke-opacity:1; 
stroke-linecap:round; stroke-linejoin:round;">
<path d="M7210 9398
L7210 9398
" />
<path d="M8210 10398
L8210 10398
" />
<path d="M7210 10398
L7210 10398
" />
<path d="M8210 11398
L8210 11398
" />
<path d="M7210 11398
L7210 11398
" />
</g>
<g style="fill:#000000; fill-opacity:0.0; 
stroke:#000000; stroke-width:0; stroke-opacity:1; 
stroke-linecap:round; stroke-linejoin:round;">
</g>
<g style="fill:#000000; fill-opacity:1.0; 
stroke:#000000; stroke-width:0; stroke-opacity:1; 
stroke-linecap:round; stroke-linejoin:round;">
<polyline style="fill-rule:evenodd;"
points="9279,8746
9279,9061
9594,9061
9594,8746
9279,8746
" /> 
<polyline style="fill-rule:evenodd;"
points="10027,8746
10027,9061
10342,9061
10342,8746
10027,8746
" /> 
<polyline style="fill-rule:evenodd;"
points="9653,9533
9653,9848
9968,9848
9968,9533
9653,9533
" /> 
<polyline style="fill-rule:evenodd;"
points="18879,10146
18879,10461
19194,10461
19194,10146
18879,10146
" /> 
<polyline style="fill-rule:evenodd;"
points="19627,10146
19627,10461
19942,10461
19942,10146
19627,10146
" /> 
<polyline style="fill-rule:evenodd;"
points="19253,10933
19253,11248
19568,11248
19568,10933
19253,10933
" /> 
<polyline style="fill-rule:evenodd;"
points="10879,2946
10879,3261
11194,3261
11194,2946
10879,2946
" /> 
<polyline style="fill-rule:evenodd;"
points="11627,2946
11627,3261
11942,3261
11942,2946
11627,2946
" /> 
<polyline style="fill-rule:evenodd;"
points="11253,3733
11253,4048
11568,4048
11568,3733
11253,3733
" /> 
<circle cx="14721.6" cy="4798.03" r="256" /> 
</g>
<g style="fill:#000000; fill-opacity:1.0; 
stroke:#000000; stroke-width:39.3701; stroke-opacity:1; 
stroke-linecap:round; stroke-linejoin:round;">
</g>
<g style="fill:#000000; fill-opacity:1.0; 
stroke:#000000; stroke-width:0; stroke-opacity:1; 
stroke-linecap:round; stroke-linejoin:round;">
<circle cx="16099.6" cy="4798.03" r="256" /> 
</g>
<g style="fill:#000000; fill-opacity:1.0; 
stroke:#000000; stroke-width:39.3701; stroke-opacity:1; 
stroke-linecap:round; stroke-linejoin:round;">
</g>
<g style="fill:#000000; fill-opacity:1.0; 
stroke:#000000; stroke-width:0; stroke-opacity:1; 
stroke-linecap:round; stroke-linejoin:round;">
<circle cx="18199.6" cy="4798.03" r="256" /> 
</g>
<g style="fill:#000000; fill-opacity:1.0; 
stroke:#000000; stroke-width:39.3701; stroke-opacity:1; 
stroke-linecap:round; stroke-linejoin:round;">
</g>
<g style="fill:#000000; fill-opacity:1.0; 
stroke:#000000; stroke-width:0; stroke-opacity:1; 
stroke-linecap:round; stroke-linejoin:round;">
<circle cx="16821.6" cy="4798.03" r="256" /> 
</g>
<g style="fill:#000000; fill-opacity:1.0; 
stroke:#000000; stroke-width:39.3701; stroke-opacity:1; 
stroke-linecap:round; stroke-linejoin:round;">
</g>
<g style="fill:#000000; fill-opacity:1.0; 
stroke:#000000; stroke-width:0; stroke-opacity:1; 
stroke-linecap:round; stroke-linejoin:round;">
<polyline style="fill-rule:evenodd;"
points="9830,11328
10190,11328
10190,10968
9830,10968
9830,11328
" /> 
<polyline style="fill-rule:evenodd;"
points="9830,10628
10190,10628
10190,10268
9830,10268
9830,10628
" /> 
<polyline style="fill-rule:evenodd;"
points="9030,10978
9390,10978
9390,10618
9030,10618
9030,10978
" /> 
<polyline style="fill-rule:evenodd;"
points="10530,4728
10890,4728
10890,4368
10530,4368
10530,4728
" /> 
<polyline style="fill-rule:evenodd;"
points="10530,4028
10890,4028
10890,3668
10530,3668
10530,4028
" /> 
<polyline style="fill-rule:evenodd;"
points="9730,4378
10090,4378
10090,4018
9730,4018
9730,4378
" /> 
<polyline style="fill-rule:evenodd;"
points="14356,5310
13864,5310
13864,5901
14356,5901
14356,5310
" /> 
<polyline style="fill-rule:evenodd;"
points="14356,6294
13864,6294
13864,6885
14356,6885
14356,6294
" /> 
<polyline style="fill-rule:evenodd;"
points="10664,8385
11156,8385
11156,7794
10664,7794
10664,8385
" /> 
<polyline style="fill-rule:evenodd;"
points="10664,7401
11156,7401
11156,6810
10664,6810
10664,7401
" /> 
<polyline style="fill-rule:evenodd;"
points="17598,13044
17598,12551
17007,12551
17007,13044
17598,13044
" /> 
<polyline style="fill-rule:evenodd;"
points="16613,13044
16613,12551
16023,12551
16023,13044
16613,13044
" /> 
<polyline style="fill-rule:evenodd;"
points="13564,10385
14056,10385
14056,9794
13564,9794
13564,10385
" /> 
<polyline style="fill-rule:evenodd;"
points="13564,9401
14056,9401
14056,8810
13564,8810
13564,9401
" /> 
<polyline style="fill-rule:evenodd;"
points="7254,6442
7254,6953
7766,6953
7766,6442
7254,6442
" /> 
<circle cx="9479.14" cy="6698.03" r="255.906" /> 
</g>
<g style="fill:#000000; fill-opacity:1.0; 
stroke:#000000; stroke-width:39.3701; stroke-opacity:1; 
stroke-linecap:round; stroke-linejoin:round;">
</g>
<g style="fill:#000000; fill-opacity:1.0; 
stroke:#000000; stroke-width:0; stroke-opacity:1; 
stroke-linecap:round; stroke-linejoin:round;">
<polyline style="fill-rule:evenodd;"
points="14056,2910
13564,2910
13564,3501
14056,3501
14056,2910
" /> 
<polyline style="fill-rule:evenodd;"
points="14056,3894
13564,3894
13564,4485
14056,4485
14056,3894
" /> 
<polyline style="fill-rule:evenodd;"
points="14183,12542
14183,13053
14774,13053
14774,12542
14183,12542
" /> 
<polyline style="fill-rule:evenodd;"
points="15246,12542
15246,13053
15837,13053
15837,12542
15246,12542
" /> 
<polyline style="fill-rule:evenodd;"
points="11166,9271
10654,9271
10654,9861
11166,9861
11166,9271
" /> 
<polyline style="fill-rule:evenodd;"
points="11166,10334
10654,10334
10654,10924
11166,10924
11166,10334
" /> 
<polyline style="fill-rule:evenodd;"
points="11966,9471
11454,9471
11454,10061
11966,10061
11966,9471
" /> 
<polyline style="fill-rule:evenodd;"
points="11966,10534
11454,10534
11454,11124
11966,11124
11966,10534
" /> 
<polyline style="fill-rule:evenodd;"
points="19454,9924
19966,9924
19966,9334
19454,9334
19454,9924
" /> 
<polyline style="fill-rule:evenodd;"
points="19454,8861
19966,8861
19966,8271
19454,8271
19454,8861
" /> 
<polyline style="fill-rule:evenodd;"
points="20054,11921
20054,11409
19464,11409
19464,11921
20054,11921
" /> 
<polyline style="fill-rule:evenodd;"
points="18991,11921
18991,11409
18401,11409
18401,11921
18991,11921
" /> 
<polyline style="fill-rule:evenodd;"
points="14737,11653
14737,11142
14146,11142
14146,11653
14737,11653
" /> 
<polyline style="fill-rule:evenodd;"
points="13674,11653
13674,11142
13083,11142
13083,11653
13674,11653
" /> 
<polyline style="fill-rule:evenodd;"
points="7883,12142
7883,12653
8474,12653
8474,12142
7883,12142
" /> 
<polyline style="fill-rule:evenodd;"
points="8946,12142
8946,12653
9537,12653
9537,12142
8946,12142
" /> 
<polyline style="fill-rule:evenodd;"
points="13137,1553
13137,1042
12546,1042
12546,1553
13137,1553
" /> 
<polyline style="fill-rule:evenodd;"
points="12074,1553
12074,1042
11483,1042
11483,1553
12074,1553
" /> 
<polyline style="fill-rule:evenodd;"
points="15822,6941
16334,6941
16334,6350
15822,6350
15822,6941
" /> 
<polyline style="fill-rule:evenodd;"
points="15822,5878
16334,5878
16334,5287
15822,5287
15822,5878
" /> 
<polyline style="fill-rule:evenodd;"
points="16511,6941
17023,6941
17023,6350
16511,6350
16511,6941
" /> 
<polyline style="fill-rule:evenodd;"
points="16511,5878
17023,5878
17023,5287
16511,5287
16511,5878
" /> 
<polyline style="fill-rule:evenodd;"
points="10054,2724
10566,2724
10566,2134
10054,2134
10054,2724
" /> 
<polyline style="fill-rule:evenodd;"
points="10054,1661
10566,1661
10566,1071
10054,1071
10054,1661
" /> 
<polyline style="fill-rule:evenodd;"
points="15645,5287
15133,5287
15133,5878
15645,5878
15645,5287
" /> 
<polyline style="fill-rule:evenodd;"
points="15645,6350
15133,6350
15133,6941
15645,6941
15645,6350
" /> 
<polyline style="fill-rule:evenodd;"
points="12637,2453
12637,1942
12046,1942
12046,2453
12637,2453
" /> 
<polyline style="fill-rule:evenodd;"
points="11574,2453
11574,1942
10983,1942
10983,2453
11574,2453
" /> 
<polyline style="fill-rule:evenodd;"
points="5783,12142
5783,12653
6374,12653
6374,12142
5783,12142
" /> 
<polyline style="fill-rule:evenodd;"
points="6846,12142
6846,12653
7437,12653
7437,12142
6846,12142
" /> 
<polyline style="fill-rule:evenodd;"
points="3566,8371
3054,8371
3054,8961
3566,8961
3566,8371
" /> 
<polyline style="fill-rule:evenodd;"
points="3566,9434
3054,9434
3054,10024
3566,10024
3566,9434
" /> 
<polyline style="fill-rule:evenodd;"
points="5937,7053
5937,6542
5346,6542
5346,7053
5937,7053
" /> 
<polyline style="fill-rule:evenodd;"
points="4874,7053
4874,6542
4283,6542
4283,7053
4874,7053
" /> 
<polyline style="fill-rule:evenodd;"
points="4337,6153
4337,5642
3746,5642
3746,6153
4337,6153
" /> 
<polyline style="fill-rule:evenodd;"
points="3274,6153
3274,5642
2683,5642
2683,6153
3274,6153
" /> 
<polyline style="fill-rule:evenodd;"
points="16079,2903
15882,2903
15882,3809
16079,3809
16079,2903
" /> 
<polyline style="fill-rule:evenodd;"
points="16394,2903
16197,2903
16197,3809
16394,3809
16394,2903
" /> 
<polyline style="fill-rule:evenodd;"
points="16709,2903
16512,2903
16512,3809
16709,3809
16709,2903
" /> 
<polyline style="fill-rule:evenodd;"
points="17024,2903
16827,2903
16827,3809
17024,3809
17024,2903
" /> 
<polyline style="fill-rule:evenodd;"
points="17339,2903
17142,2903
17142,3809
17339,3809
17339,2903
" /> 
<polyline style="fill-rule:evenodd;"
points="15252,2825
14465,2825
14465,3809
15252,3809
15252,2825
" /> 
<polyline style="fill-rule:evenodd;"
points="15252,660
14465,660
14465,1644
15252,1644
15252,660
" /> 
<polyline style="fill-rule:evenodd;"
points="18756,2825
17969,2825
17969,3809
18756,3809
18756,2825
" /> 
<polyline style="fill-rule:evenodd;"
points="18756,660
17969,660
17969,1644
18756,1644
18756,660
" /> 
<circle cx="15744.6" cy="2333.03" r="177" /> 
</g>
<g style="fill:#000000; fill-opacity:1.0; 
stroke:#000000; stroke-width:39.3701; stroke-opacity:1; 
stroke-linecap:round; stroke-linejoin:round;">
</g>
<g style="fill:#000000; fill-opacity:1.0; 
stroke:#000000; stroke-width:0; stroke-opacity:1; 
stroke-linecap:round; stroke-linejoin:round;">
<circle cx="17476.6" cy="2333.03" r="177" /> 
</g>
<g style="fill:#000000; fill-opacity:1.0; 
stroke:#000000; stroke-width:39.3701; stroke-opacity:1; 
stroke-linecap:round; stroke-linejoin:round;">
</g>
<g style="fill:#000000; fill-opacity:1.0; 
stroke:#000000; stroke-width:0; stroke-opacity:1; 
stroke-linecap:round; stroke-linejoin:round;">
<circle cx="12510.6" cy="6137.03" r="295.5" /> 
</g>
<g style="fill:#000000; fill-opacity:1.0; 
stroke:#000000; stroke-width:39.3701; stroke-opacity:1; 
stroke-linecap:round; stroke-linejoin:round;">
</g>
<g style="fill:#000000; fill-opacity:1.0; 
stroke:#000000; stroke-width:0; stroke-opacity:1; 
stroke-linecap:round; stroke-linejoin:round;">
<circle cx="12510.6" cy="8059.03" r="295.5" /> 
</g>
<g style="fill:#000000; fill-opacity:1.0; 
stroke:#000000; stroke-width:39.3701; stroke-opacity:1; 
stroke-linecap:round; stroke-linejoin:round;">
</g>
<g style="fill:#000000; fill-opacity:1.0; 
stroke:#000000; stroke-width:0; stroke-opacity:1; 
stroke-linecap:round; stroke-linejoin:round;">
<circle cx="17869.7" cy="12787.8" r="118.11" /> 
</g>
<g style="fill:#000000; fill-opacity:1.0; 
stroke:#000000; stroke-width:39.3701; stroke-opacity:1; 
stroke-linecap:round; stroke-linejoin:round;">
</g>
<g style="fill:#000000; fill-opacity:1.0; 
stroke:#000000; stroke-width:0; stroke-opacity:1; 
stroke-linecap:round; stroke-linejoin:round;">
<circle cx="17672.8" cy="5484.65" r="118.11" /> 
</g>
<g style="fill:#000000; fill-opacity:1.0; 
stroke:#000000; stroke-width:39.3701; stroke-opacity:1; 
stroke-linecap:round; stroke-linejoin:round;">
</g>
<g style="fill:#000000; fill-opacity:1.0; 
stroke:#000000; stroke-width:0; stroke-opacity:1; 
stroke-linecap:round; stroke-linejoin:round;">
<circle cx="18972.1" cy="9461.02" r="118.11" /> 
</g>
<g style="fill:#000000; fill-opacity:1.0; 
stroke:#000000; stroke-width:39.3701; stroke-opacity:1; 
stroke-linecap:round; stroke-linejoin:round;">
</g>
<g style="fill:#000000; fill-opacity:1.0; 
stroke:#000000; stroke-width:0; stroke-opacity:1; 
stroke-linecap:round; stroke-linejoin:round;">
<circle cx="18696.5" cy="7472.84" r="118.11" /> 
</g>
<g style="fill:#000000; fill-opacity:1.0; 
stroke:#000000; stroke-width:39.3701; stroke-opacity:1; 
stroke-linecap:round; stroke-linejoin:round;">
</g>
<g style="fill:#000000; fill-opacity:1.0; 
stroke:#000000; stroke-width:0; stroke-opacity:1; 
stroke-linecap:round; stroke-linejoin:round;">
<circle cx="16216.1" cy="11823.2" r="118.11" /> 
</g>
<g style="fill:#000000; fill-opacity:1.0; 
stroke:#000000; stroke-width:39.3701; stroke-opacity:1; 
stroke-linecap:round; stroke-linejoin:round;">
</g>
<g style="fill:#000000; fill-opacity:1.0; 
stroke:#000000; stroke-width:0; stroke-opacity:1; 
stroke-linecap:round; stroke-linejoin:round;">
<circle cx="13834.3" cy="12354.7" r="118.11" /> 
</g>
<g style="fill:#000000; fill-opacity:1.0; 
stroke:#000000; stroke-width:39.3701; stroke-opacity:1; 
stroke-linecap:round; stroke-linejoin:round;">
</g>
<g style="fill:#000000; fill-opacity:1.0; 
stroke:#000000; stroke-width:0; stroke-opacity:1; 
stroke-linecap:round; stroke-linejoin:round;">
<circle cx="13598" cy="1587.01" r="118.11" /> 
</g>
<g style="fill:#000000; fill-opacity:1.0; 
stroke:#000000; stroke-width:39.3701; stroke-opacity:1; 
stroke-linecap:round; stroke-linejoin:round;">
</g>
<g style="fill:#000000; fill-opacity:1.0; 
stroke:#000000; stroke-width:0; stroke-opacity:1; 
stroke-linecap:round; stroke-linejoin:round;">
<circle cx="13204.3" cy="10720.9" r="118.11" /> 
</g>
<g style="fill:#000000; fill-opacity:1.0; 
stroke:#000000; stroke-width:39.3701; stroke-opacity:1; 
stroke-linecap:round; stroke-linejoin:round;">
</g>
<g style="fill:#000000; fill-opacity:1.0; 
stroke:#000000; stroke-width:0; stroke-opacity:1; 
stroke-linecap:round; stroke-linejoin:round;">
<circle cx="9306.7" cy="9815.35" r="118.11" /> 
</g>
<g style="fill:#000000; fill-opacity:1.0; 
stroke:#000000; stroke-width:39.3701; stroke-opacity:1; 
stroke-linecap:round; stroke-linejoin:round;">
</g>
<g style="fill:#000000; fill-opacity:1.0; 
stroke:#000000; stroke-width:0; stroke-opacity:1; 
stroke-linecap:round; stroke-linejoin:round;">
<circle cx="18066.5" cy="11764.2" r="118.11" /> 
</g>
<g style="fill:#000000; fill-opacity:1.0; 
stroke:#000000; stroke-width:39.3701; stroke-opacity:1; 
stroke-linecap:round; stroke-linejoin:round;">
</g>
<g style="fill:#000000; fill-opacity:1.0; 
stroke:#000000; stroke-width:157.48; stroke-opacity:1; 
stroke-linecap:round; stroke-linejoin:round;">
</g>
<g style="fill:#000000; fill-opacity:0.0; 
stroke:#000000; stroke-width:157.48; stroke-opacity:1; 
stroke-linecap:round; stroke-linejoin:round;">
<path d="M13810 10090
L13126 10090
" />
<path d="M12416 11567
L12416 11587
" />
<path d="M12712 11272
L12416 11567
" />
<path d="M12712 10504
L12712 11272
" />
<path d="M13126 10090
L12712 10504
" />
</g>
<g style="fill:#000000; fill-opacity:0.0; 
stroke:#000000; stroke-width:314.961; stroke-opacity:1; 
stroke-linecap:round; stroke-linejoin:round;">
<path d="M8210 9398
L7210 9398
" />
</g>
<g style="fill:#000000; fill-opacity:0.0; 
stroke:#000000; stroke-width:157.48; stroke-opacity:1; 
stroke-linecap:round; stroke-linejoin:round;">
<path d="M1510 11098
L1510 11271
" />
<path d="M1510 11271
L2042 11803
" />
<path d="M5610 9692
L5610 8598
" />
<path d="M3499 11803
L5610 9692
" />
<path d="M2042 11803
L3499 11803
" />
<path d="M5610 8598
L6410 8598
" />
<path d="M6410 8598
L7210 9398
" />
<path d="M1010 6998
L1010 8389
" />
<path d="M1510 8889
L1510 11098
" />
<path d="M1010 8389
L1510 8889
" />
<path d="M1010 6998
L1010 5414
" />
<path d="M1610 4814
L1610 3598
" />
<path d="M1010 5414
L1610 4814
" />
<path d="M17302 12798
L17859 12798
" />
<path d="M17859 12798
L17869 12787
" />
<path d="M11310 12498
L11505 12498
" />
<path d="M11505 12498
L12416 11587
" />
<path d="M8210 9398
L8210 7966
" />
<path d="M8210 7966
L9479 6698
" />
<path d="M9479 6698
L10106 6698
" />
<path d="M10514 7105
L10910 7105
" />
<path d="M10106 6698
L10514 7105
" />
<path d="M10910 7105
L10910 5966
" />
<path d="M10290 5346
L10290 2449
" />
<path d="M10910 5966
L10290 5346
" />
<path d="M10290 2449
L10310 2429
" />
<path d="M14110 5605
L13798 5605
" />
<path d="M13145 4618
L13145 3476
" />
<path d="M13145 3476
L13416 3205
" />
<path d="M13416 3205
L13810 3205
" />
<path d="M13145 4953
L13145 4618
" />
<path d="M13798 5605
L13145 4953
" />
<path d="M17672 5484
L18199 4957
" />
<path d="M18199 4957
L18199 4798
" />
<path d="M18755 9579
L18853 9579
" />
<path d="M18853 9579
L18972 9461
" />
<path d="M14779 9894
L15231 9894
" />
<path d="M15271 9264
L14779 9264
" />
<path d="M15409 9401
L15271 9264
" />
<path d="M15409 9716
L15409 9401
" />
<path d="M15231 9894
L15409 9716
" />
<path d="M13810 10090
L13992 10090
" />
<path d="M13992 10090
L14188 9894
" />
<path d="M14188 9894
L14779 9894
" />
<path d="M18125 9579
L18755 9579
" />
<path d="M18755 9579
L18775 9579
" />
<path d="M19036 9840
L19036 10304
" />
<path d="M18775 9579
L19036 9840
" />
<path d="M14721 4798
L14721 4994
" />
<path d="M14721 4994
L14110 5605
" />
<path d="M18199 4798
L18199 4509
" />
<path d="M18362 4346
L18362 3317
" />
<path d="M18199 4509
L18362 4346
" />
<path d="M17240 3356
L18323 3356
" />
<path d="M18323 3356
L18362 3317
" />
<path d="M16925 3356
L16925 4013
" />
<path d="M17240 3968
L17240 3356
" />
<path d="M17110 4098
L17240 3968
" />
<path d="M17010 4098
L17110 4098
" />
<path d="M16925 4013
L17010 4098
" />
<path d="M18362 1152
L18362 3317
" />
<path d="M14858 1152
L18362 1152
" />
<path d="M14858 3317
L14858 1152
" />
<path d="M13810 3205
L14747 3205
" />
<path d="M14747 3205
L14858 3317
" />
</g>
<g style="fill:#000000; fill-opacity:0.0; 
stroke:#000000; stroke-width:314.961; stroke-opacity:1; 
stroke-linecap:round; stroke-linejoin:round;">
<path d="M11036 3104
L10985 3104
" />
<path d="M10985 3104
L10310 2429
" />
</g>
<g style="fill:#000000; fill-opacity:0.0; 
stroke:#000000; stroke-width:157.48; stroke-opacity:1; 
stroke-linecap:round; stroke-linejoin:round;">
<path d="M14110 6590
L13601 6590
" />
<path d="M13148 6137
L12510 6137
" />
<path d="M13601 6590
L13148 6137
" />
<path d="M14779 8319
L14267 8319
" />
<path d="M13912 7492
L12557 6137
" />
<path d="M13912 7964
L13912 7492
" />
<path d="M14267 8319
L13912 7964
" />
<path d="M12557 6137
L12510 6137
" />
<path d="M12510 8059
L10941 8059
" />
<path d="M10941 8059
L10910 8090
" />
<path d="M14779 8634
L14168 8634
" />
<path d="M13593 8059
L12510 8059
" />
<path d="M14168 8634
L13593 8059
" />
<path d="M18735 6075
L18735 6921
" />
<path d="M18735 6921
L18696 6961
" />
<path d="M18696 6961
L18696 7472
" />
<path d="M19444 5366
L18735 6075
" />
<path d="M16318 12798
L15542 12798
" />
<path d="M15542 12798
L15542 12497
" />
<path d="M15542 12497
L16216 11823
" />
<path d="M19838 5366
L19444 5366
" />
<path d="M16216 11823
L16294 11744
" />
<path d="M16294 11744
L16294 11094
" />
</g>
<g style="fill:#000000; fill-opacity:0.0; 
stroke:#000000; stroke-width:236.22; stroke-opacity:1; 
stroke-linecap:round; stroke-linejoin:round;">
<path d="M3610 3598
L7118 3598
" />
<path d="M12298 917
L12298 2154
" />
<path d="M12161 779
L12298 917
" />
<path d="M9936 779
L12161 779
" />
<path d="M7118 3598
L9936 779
" />
<path d="M12298 2154
L12342 2198
" />
</g>
<g style="fill:#000000; fill-opacity:0.0; 
stroke:#000000; stroke-width:157.48; stroke-opacity:1; 
stroke-linecap:round; stroke-linejoin:round;">
<path d="M13834 12354
L14035 12354
" />
<path d="M14035 12354
L14479 12798
" />
<path d="M13834 12354
L14277 12798
" />
<path d="M14277 12798
L14479 12798
" />
</g>
<g style="fill:#000000; fill-opacity:0.0; 
stroke:#000000; stroke-width:314.961; stroke-opacity:1; 
stroke-linecap:round; stroke-linejoin:round;">
<path d="M11710 9766
L12642 9766
" />
<path d="M13303 9105
L13810 9105
" />
<path d="M12642 9766
L13303 9105
" />
<path d="M11710 9766
L11110 9766
" />
<path d="M11110 9766
L10910 9566
" />
</g>
<g style="fill:#000000; fill-opacity:0.0; 
stroke:#000000; stroke-width:157.48; stroke-opacity:1; 
stroke-linecap:round; stroke-linejoin:round;">
<path d="M11393 11606
L11865 11606
" />
<path d="M12426 9766
L11710 9766
" />
<path d="M11865 11606
L12426 11046
" />
<path d="M12426 11046
L12426 9766
" />
<path d="M14479 12798
L13095 12798
" />
<path d="M11216 11606
L11393 11606
" />
<path d="M10783 12039
L11216 11606
" />
<path d="M10783 12827
L10783 12039
" />
<path d="M10979 13024
L10783 12827
" />
<path d="M12869 13024
L10979 13024
" />
<path d="M13095 12798
L12869 13024
" />
<path d="M18834 8791
L18834 8398
" />
<path d="M18834 8398
L19838 7394
" />
<path d="M19838 7394
L19838 7177
" />
<path d="M9436 8904
L9436 8819
" />
<path d="M9436 8819
L9857 8398
" />
<path d="M9857 8398
L10330 8398
" />
<path d="M11110 9766
L10910 9566
" />
<path d="M12722 5140
L12544 5140
" />
<path d="M10910 8978
L10910 9566
" />
<path d="M10310 8378
L10330 8398
" />
<path d="M10330 8398
L10910 8978
" />
<path d="M10310 7768
L10310 8378
" />
<path d="M10468 7610
L10310 7768
" />
<path d="M11531 7610
L10468 7610
" />
<path d="M11649 7492
L11531 7610
" />
<path d="M11649 6035
L11649 7492
" />
<path d="M12544 5140
L11649 6035
" />
<path d="M15290 4190
L15290 4854
" />
<path d="M12129 4548
L12060 4548
" />
<path d="M13676 6094
L12722 5140
" />
<path d="M12722 5140
L12129 4548
" />
<path d="M14503 6094
L13676 6094
" />
<path d="M14680 5917
L14503 6094
" />
<path d="M14680 5464
L14680 5917
" />
<path d="M15290 4854
L14680 5464
" />
<path d="M18125 8634
L18676 8634
" />
<path d="M18696 9264
L18125 9264
" />
<path d="M18834 9126
L18696 9264
" />
<path d="M18834 8791
L18834 9126
" />
<path d="M18676 8634
L18834 8791
" />
<path d="M14779 9579
L14287 9579
" />
<path d="M14287 9579
L13813 9105
" />
<path d="M13813 9105
L13810 9105
" />
<path d="M13810 9105
L14090 9105
" />
<path d="M14090 9105
L14247 8949
" />
<path d="M14247 8949
L14779 8949
" />
<path d="M13810 4190
L15290 4190
" />
<path d="M15290 4190
L15818 4190
" />
<path d="M15980 4028
L15980 3356
" />
<path d="M15818 4190
L15980 4028
" />
</g>
<g style="fill:#000000; fill-opacity:0.0; 
stroke:#000000; stroke-width:314.961; stroke-opacity:1; 
stroke-linecap:round; stroke-linejoin:round;">
<path d="M10710 4548
L12060 4548
" />
<path d="M12060 4548
L12342 4266
" />
<path d="M12342 4266
L12342 2198
" />
</g>
<g style="fill:#000000; fill-opacity:0.0; 
stroke:#000000; stroke-width:157.48; stroke-opacity:1; 
stroke-linecap:round; stroke-linejoin:round;">
<path d="M14442 11398
L14442 10723
" />
<path d="M14442 10723
L14641 10524
" />
<path d="M14641 10524
L14779 10524
" />
</g>
<g style="fill:#000000; fill-opacity:0.0; 
stroke:#000000; stroke-width:314.961; stroke-opacity:1; 
stroke-linecap:round; stroke-linejoin:round;">
<path d="M13598 1587
L13420 1409
" />
<path d="M13420 1409
L12953 1409
" />
<path d="M12953 1409
L12842 1298
" />
</g>
<g style="fill:#000000; fill-opacity:0.0; 
stroke:#000000; stroke-width:157.48; stroke-opacity:1; 
stroke-linecap:round; stroke-linejoin:round;">
<path d="M14779 10209
L14405 10209
" />
<path d="M13991 10720
L13204 10720
" />
<path d="M14227 10484
L13991 10720
" />
<path d="M14227 10386
L14227 10484
" />
<path d="M14405 10209
L14227 10386
" />
<path d="M12953 1409
L12842 1298
" />
<path d="M16609 7748
L16609 6803
" />
<path d="M16609 6803
L16767 6646
" />
<path d="M16767 6488
L16767 6508
" />
<path d="M16767 6508
L16609 6665
" />
<path d="M15350 11094
L15350 10602
" />
<path d="M16294 9657
L16294 7748
" />
<path d="M15350 10602
L16294 9657
" />
<path d="M16294 7748
L16294 6862
" />
<path d="M16294 6862
L16078 6646
" />
<path d="M16078 6488
L16117 6488
" />
<path d="M17239 7748
L17239 7068
" />
<path d="M19247 2650
L19838 2650
" />
<path d="M18932 2964
L19247 2650
" />
<path d="M18932 3988
L18932 2964
" />
<path d="M18617 4303
L18932 3988
" />
<path d="M18617 5090
L18617 4303
" />
<path d="M17910 5798
L18617 5090
" />
<path d="M17910 6398
L17910 5798
" />
<path d="M17239 7068
L17910 6398
" />
<path d="M19838 3555
L19247 3555
" />
<path d="M17554 7157
L17554 7748
" />
<path d="M18164 6547
L17554 7157
" />
<path d="M18164 5898
L18164 6547
" />
<path d="M18873 5189
L18164 5898
" />
<path d="M18873 4401
L18873 5189
" />
<path d="M19188 4087
L18873 4401
" />
<path d="M19188 3614
L19188 4087
" />
<path d="M19247 3555
L19188 3614
" />
<path d="M19838 4461
L19346 4461
" />
<path d="M18125 7098
L18125 8319
" />
<path d="M18420 6803
L18125 7098
" />
<path d="M18420 5996
L18420 6803
" />
<path d="M19129 5287
L18420 5996
" />
<path d="M19129 4677
L19129 5287
" />
<path d="M19346 4461
L19129 4677
" />
<path d="M18125 8319
L18342 8319
" />
<path d="M18125 8319
L18263 8319
" />
<path d="M18125 10524
L18558 10524
" />
<path d="M19287 8870
L19590 8566
" />
<path d="M19287 10012
L19287 8870
" />
<path d="M19365 10090
L19287 10012
" />
<path d="M19365 10563
L19365 10090
" />
<path d="M19227 10701
L19365 10563
" />
<path d="M18735 10701
L19227 10701
" />
<path d="M18558 10524
L18735 10701
" />
<path d="M19590 8566
L19710 8566
" />
<path d="M448 6705
L448 3476
" />
<path d="M2610 3119
L2610 3598
" />
<path d="M2259 2768
L2610 3119
" />
<path d="M1157 2768
L2259 2768
" />
<path d="M448 3476
L1157 2768
" />
<path d="M17239 11094
L17239 11488
" />
<path d="M448 11685
L448 6705
" />
<path d="M2141 13378
L448 11685
" />
<path d="M9739 13378
L2141 13378
" />
<path d="M10290 13929
L9739 13378
" />
<path d="M13342 13929
L10290 13929
" />
<path d="M13499 13772
L13342 13929
" />
<path d="M17889 13772
L13499 13772
" />
<path d="M18420 13240
L17889 13772
" />
<path d="M18420 12453
L18420 13240
" />
<path d="M18105 12138
L18420 12453
" />
<path d="M17771 12138
L18105 12138
" />
<path d="M17515 11882
L17771 12138
" />
<path d="M17515 11764
L17515 11882
" />
<path d="M17239 11488
L17515 11764
" />
<path d="M17692 12394
L17751 12453
" />
<path d="M16924 11646
L17121 11842
" />
<path d="M17121 11842
L17121 12197
" />
<path d="M17121 12197
L17298 12374
" />
<path d="M17298 12374
L17672 12374
" />
<path d="M17672 12374
L17692 12394
" />
<path d="M16924 11094
L16924 11646
" />
<path d="M6079 12788
L6079 12398
" />
<path d="M6314 13024
L6079 12788
" />
<path d="M9877 13024
L6314 13024
" />
<path d="M10487 13634
L9877 13024
" />
<path d="M13224 13634
L10487 13634
" />
<path d="M13361 13496
L13224 13634
" />
<path d="M17613 13496
L13361 13496
" />
<path d="M18164 12945
L17613 13496
" />
<path d="M18164 12610
L18164 12945
" />
<path d="M18007 12453
L18164 12610
" />
<path d="M17751 12453
L18007 12453
" />
<path d="M16609 11094
L16609 11783
" />
<path d="M9916 12413
L9257 12413
" />
<path d="M10783 13279
L9916 12413
" />
<path d="M13105 13279
L10783 13279
" />
<path d="M13145 13240
L13105 13279
" />
<path d="M16668 13240
L13145 13240
" />
<path d="M16806 13102
L16668 13240
" />
<path d="M16806 11980
L16806 13102
" />
<path d="M16609 11783
L16806 11980
" />
<path d="M9257 12413
L9242 12398
" />
<path d="M15350 7748
L15350 6685
" />
<path d="M15350 6685
L15389 6646
" />
<path d="M15350 6527
L15389 6488
" />
</g>
<g style="fill:#000000; fill-opacity:0.0; 
stroke:#000000; stroke-width:314.961; stroke-opacity:1; 
stroke-linecap:round; stroke-linejoin:round;">
<path d="M11710 10829
L11110 10829
" />
<path d="M11110 10829
L10910 10629
" />
<path d="M10010 11148
L10336 11148
" />
<path d="M10336 11148
L10854 10629
" />
<path d="M10854 10629
L10910 10629
" />
</g>
<g style="fill:#000000; fill-opacity:0.0; 
stroke:#000000; stroke-width:157.48; stroke-opacity:1; 
stroke-linecap:round; stroke-linejoin:round;">
<path d="M10010 11148
L10119 11148
" />
<path d="M11710 10829
L11482 10829
" />
<path d="M10184 8904
L10184 9079
" />
<path d="M10605 10324
L10910 10629
" />
<path d="M10605 10209
L10605 10324
" />
<path d="M10310 9913
L10605 10209
" />
<path d="M10310 9205
L10310 9913
" />
<path d="M10184 9079
L10310 9205
" />
</g>
<g style="fill:#000000; fill-opacity:0.0; 
stroke:#000000; stroke-width:314.961; stroke-opacity:1; 
stroke-linecap:round; stroke-linejoin:round;">
<path d="M9306 9815
L9523 9815
" />
</g>
<g style="fill:#000000; fill-opacity:0.0; 
stroke:#000000; stroke-width:157.48; stroke-opacity:1; 
stroke-linecap:round; stroke-linejoin:round;">
<path d="M9647 9691
L9810 9691
" />
</g>
<g style="fill:#000000; fill-opacity:0.0; 
stroke:#000000; stroke-width:314.961; stroke-opacity:1; 
stroke-linecap:round; stroke-linejoin:round;">
<path d="M9523 9815
L9647 9691
" />
<path d="M18066 11764
L18164 11665
" />
<path d="M18164 11665
L18696 11665
" />
<path d="M10010 10448
L10010 10145
" />
<path d="M9810 9945
L9810 9691
" />
<path d="M10010 10145
L9810 9945
" />
</g>
<g style="fill:#000000; fill-opacity:0.0; 
stroke:#000000; stroke-width:157.48; stroke-opacity:1; 
stroke-linecap:round; stroke-linejoin:round;">
<path d="M18696 11665
L18164 11665
" />
<path d="M13379 11398
L13216 11398
" />
<path d="M13216 11398
L12310 12303
" />
<path d="M12310 12303
L12310 12498
" />
<path d="M16078 5583
L15389 5583
" />
<path d="M16099 4798
L16099 5561
" />
<path d="M16099 5561
L16078 5583
" />
<path d="M16295 3356
L16295 4602
" />
<path d="M16295 4602
L16099 4798
" />
<path d="M16078 5740
L16078 5740
" />
<path d="M16821 4798
L16821 5087
" />
<path d="M16767 5141
L16767 5583
" />
<path d="M16821 5087
L16767 5141
" />
<path d="M16610 3356
L16610 4587
" />
<path d="M16610 4587
L16821 4798
" />
<path d="M16767 5740
L16767 5740
" />
</g>
<g style="fill:#000000; fill-opacity:0.0; 
stroke:#000000; stroke-width:314.961; stroke-opacity:1; 
stroke-linecap:round; stroke-linejoin:round;">
<path d="M2510 11098
L2610 11098
" />
<path d="M2610 11098
L3310 10398
" />
<path d="M3310 10398
L3310 9729
" />
<path d="M4579 6798
L4579 8566
" />
<path d="M4579 8566
L4610 8598
" />
<path d="M2010 6998
L2010 6866
" />
<path d="M2010 6866
L2979 5898
" />
</g>
<g style="fill:#000000; fill-opacity:0.0; 
stroke:#000000; stroke-width:157.48; stroke-opacity:1; 
stroke-linecap:round; stroke-linejoin:round;">
<path d="M8179 12398
L8179 11429
" />
<path d="M8179 11429
L8210 11398
" />
<path d="M7142 12398
L7142 11466
" />
<path d="M7142 11466
L7210 11398
" />
</g>
<g style="fill:#000000; fill-opacity:0.0; 
stroke:#000000; stroke-width:314.961; stroke-opacity:1; 
stroke-linecap:round; stroke-linejoin:round;">
<path d="M19710 9629
L19710 10230
" />
<path d="M19710 10230
L19784 10304
" />
<path d="M19410 11091
L19460 11091
" />
<path d="M19460 11091
L19759 11390
" />
<path d="M19759 11390
L19759 11665
" />
</g>
<g style="fill:#000000; fill-opacity:0.0; 
stroke:#000000; stroke-width:157.48; stroke-opacity:1; 
stroke-linecap:round; stroke-linejoin:round;">
<path d="M11784 3104
L11784 1303
" />
<path d="M11784 1303
L11779 1298
" />
</g>
<g style="fill:#000000; fill-opacity:0.0; 
stroke:#000000; stroke-width:314.961; stroke-opacity:1; 
stroke-linecap:round; stroke-linejoin:round;">
<path d="M10310 1366
L10942 1366
" />
<path d="M11010 1298
L11779 1298
" />
<path d="M10942 1366
L11010 1298
" />
</g>
<g style="fill:#000000; fill-opacity:0.0; 
stroke:#000000; stroke-width:157.48; stroke-opacity:1; 
stroke-linecap:round; stroke-linejoin:round;">
<path d="M11279 2198
L11279 2666
" />
<path d="M11410 2798
L11410 3891
" />
<path d="M11279 2666
L11410 2798
" />
</g>
<g style="fill:#000000; fill-opacity:0.0; 
stroke:#000000; stroke-width:314.961; stroke-opacity:1; 
stroke-linecap:round; stroke-linejoin:round;">
<path d="M10710 3848
L11367 3848
" />
<path d="M11367 3848
L11410 3891
" />
<path d="M5642 6798
L5642 6366
" />
<path d="M7810 4198
L9910 4198
" />
<path d="M5642 6366
L7810 4198
" />
<path d="M4042 5898
L5410 5898
" />
<path d="M5610 6098
L5610 6766
" />
<path d="M5410 5898
L5610 6098
" />
<path d="M5610 6766
L5642 6798
" />
<path d="M3310 8666
L3310 6998
" />
<path d="M4042 6266
L4042 5898
" />
<path d="M3310 6998
L4042 6266
" />
<path d="M8210 10398
L7210 10398
" />
<path d="M9210 10798
L9187 10798
" />
<path d="M9187 10798
L8787 10398
" />
<path d="M8787 10398
L8210 10398
" />
</g>
<g style="fill:#000000; fill-opacity:0.0; 
stroke:#000000; stroke-width:157.48; stroke-opacity:1; 
stroke-linecap:round; stroke-linejoin:round;">
<path d="M9187 10798
L8787 10398
" />
<path d="M8787 10398
L8210 10398
" />
</g>
<g style="fill:#000000; fill-opacity:1.0; 
stroke:#000000; stroke-width:100; stroke-opacity:1; 
stroke-linecap:round; stroke-linejoin:round;">
<polyline style="fill-rule:evenodd;"
points="7378,3858
7259,3938
7118,3966
4205,3966
4205,3998
4188,4090
4133,4175
4049,4232
3950,4252
3270,4252
3177,4235
3092,4180
3035,4097
3032,4080
3027,4087
2836,4215
2610,4260
2384,4215
2193,4087
2112,3966
1965,4129
1758,4229
1751,4230
1660,4183
1660,3648
1560,3648
1560,4183
1469,4230
1463,4229
1255,4129
1101,3958
1025,3740
1082,3648
1560,3648
1660,3648
1668,3648
1668,3548
1660,3548
1660,3540
1560,3540
1560,3548
1082,3548
1025,3455
1075,3315
777,3612
777,6465
921,6413
1152,6423
1316,6491
1347,6590
1010,6927
1005,6921
934,6992
939,6998
934,7003
1005,7074
1010,7068
1347,7405
1316,7504
1099,7582
869,7572
777,7534
777,11549
2277,13049
5875,13049
5846,13021
5775,12914
5773,12906
5691,12891
5606,12836
5549,12753
5528,12653
5528,12142
5546,12049
5601,11964
5684,11907
5783,11887
6374,11887
6467,11904
6552,11959
6609,12042
6610,12048
6664,11964
6747,11907
6813,11894
6813,11836
6781,11815
6653,11623
6609,11398
6653,11172
6781,10980
6905,10898
6781,10815
6653,10623
6609,10398
6653,10172
6781,9980
6909,9895
6860,9873
6705,9703
6637,9539
6685,9448
7160,9448
7160,9455
7260,9455
7260,9448
8160,9448
8160,9455
8260,9455
8260,9448
8738,9448
8800,9510
8800,9787
8762,9879
8692,9949
8631,9975
8639,9980
8645,9990
8787,9990
8787,9990
8942,10021
8980,10046
8930,9971
8899,9815
8930,9659
9018,9527
9150,9438
9306,9407
9354,9407
9359,9402
9488,9316
9279,9316
9186,9298
9101,9244
9044,9160
9024,9061
9024,9008
8800,9008
8800,9285
8738,9348
8260,9348
8260,8870
8160,8870
8160,9348
7260,9348
7260,8872
7160,8872
7160,9348
6685,9348
6637,9256
6705,9092
6785,9005
5947,9005
5916,9104
5699,9182
5469,9172
5304,9104
5273,9005
5610,8668
5947,9005
6785,9005
6860,8922
7069,8825
7160,8872
7260,8872
7351,8825
7560,8922
7626,8994
7658,8916
7729,8846
7820,8808
8098,8808
8160,8870
8260,8870
8323,8808
8600,8808
8692,8846
8762,8916
8800,9008
9024,9008
9024,8746
9041,8653
9096,8568
9179,8511
9192,8509
6195,8509
6184,8739
6116,8903
6018,8934
5681,8598
6018,8261
6116,8292
6195,8509
9192,8509
9279,8491
9299,8491
9600,8190
5947,8190
5610,8527
5273,8190
5304,8091
5521,8013
5752,8023
5916,8091
5947,8190
9600,8190
9625,8165
9639,8156
9732,8094
9857,8069
9981,8069
9981,7768
10006,7642
10078,7535
10235,7378
10252,7366
10342,7306
10414,7292
10414,7218
10477,7155
10860,7155
10860,7163
10960,7163
10960,7155
10968,7155
10968,7055
10960,7055
10960,6623
10860,6623
10860,7055
10477,7055
10473,7051
9762,7051
9740,7142
9550,7208
9349,7197
9217,7142
9195,7051
9479,6768
9762,7051
10473,7051
10414,6993
10414,6760
10452,6669
10494,6626
9990,6626
9978,6827
9923,6959
9833,6981
9549,6698
9408,6698
9125,6981
9034,6959
8968,6769
8979,6568
9032,6442
8021,6442
8021,6953
8004,7046
7949,7131
7865,7188
7766,7208
7254,7208
7162,7191
7076,7136
7019,7053
6999,6953
6999,6442
7017,6349
7072,6264
7155,6207
7254,6187
7766,6187
7859,6204
7944,6259
8001,6342
8021,6442
9032,6442
9034,6436
9125,6414
9408,6698
9549,6698
9833,6414
9923,6436
9990,6626
10494,6626
10522,6598
10614,6560
10798,6560
10860,6623
10960,6623
11023,6560
11206,6560
11298,6598
11320,6620
11320,6344
9762,6344
9479,6627
9195,6344
9217,6253
9407,6187
9608,6198
9740,6253
9762,6344
11320,6344
11320,6035
11345,5910
11416,5803
12168,5051
12070,4953
12060,4955
12060,4955
11000,4955
10989,4962
10890,4982
10530,4982
10437,4965
10352,4910
10295,4827
10275,4728
10275,4552
10273,4555
10189,4612
10090,4632
9730,4632
9637,4615
9622,4605
7979,4605
6159,6424
6172,6442
6192,6542
6192,7053
6174,7146
6120,7231
6036,7288
5937,7308
5346,7308
5254,7291
5169,7236
5112,7153
5110,7147
5057,7231
4986,7279
4986,8153
5102,8269
5110,8290
5202,8261
5539,8598
5202,8934
5110,8905
5102,8926
4939,9089
4726,9177
4495,9178
4282,9090
4119,8927
4030,8713
4030,8483
4118,8269
4171,8216
4171,7278
4106,7236
4049,7153
4028,7053
4028,6855
3718,7166
3718,8171
3744,8188
3801,8272
3821,8371
3821,8961
3804,9054
3749,9139
3665,9196
3660,9197
3744,9251
3801,9335
3821,9434
3821,10024
3804,10117
3749,10202
3718,10223
3718,10398
3718,10398
3687,10553
3598,10686
3090,11194
3090,11212
3002,11426
2839,11589
2626,11677
2395,11678
2182,11590
2098,11505
1847,11505
1816,11604
1599,11682
1369,11672
1204,11604
1173,11505
1510,11168
1847,11505
2098,11505
2019,11427
2010,11405
1918,11434
1581,11098
1439,11098
1102,11434
1004,11403
925,11186
936,10956
1004,10792
1102,10761
1439,11098
1581,11098
1918,10761
2010,10790
2018,10769
2098,10690
1847,10690
1510,11027
1173,10690
1204,10591
1421,10513
1652,10523
1816,10591
1847,10690
2098,10690
2181,10606
2394,10518
2614,10517
2903,10229
2903,10224
2876,10207
2819,10123
2799,10024
2799,9434
2817,9341
2872,9256
2955,9199
2960,9198
2876,9144
2819,9060
2799,8961
2799,8371
2817,8278
2872,8193
2903,8172
2903,6998
2903,6998
2934,6842
2965,6795
3022,6709
3022,6709
3336,6396
3274,6408
3044,6408
2584,6868
2590,6882
2590,7112
2502,7326
2339,7489
2126,7577
1895,7578
1682,7490
1519,7327
1510,7305
1418,7334
1081,6998
1418,6661
1510,6690
1518,6669
1681,6506
1874,6426
2428,5871
2428,5642
2446,5549
2501,5464
2584,5407
2683,5387
3274,5387
3367,5404
3452,5459
3509,5542
3510,5548
3564,5464
3647,5407
3746,5387
4337,5387
4430,5404
4515,5459
4536,5490
5410,5490
5566,5521
5698,5609
5698,5609
5760,5671
7522,3909
7654,3821
7810,3790
7810,3790
9620,3790
9631,3783
9730,3763
10090,3763
10183,3780
10268,3835
10275,3846
10275,3668
10293,3575
10347,3490
10431,3433
10530,3413
10677,3413
10667,3403
10629,3311
10629,3216
10691,3154
10986,3154
10986,3161
11081,3161
11081,3046
10986,3046
10986,3054
10691,3054
10629,2991
10629,2969
10616,2974
10423,2974
10360,2912
10360,2479
10260,2479
10260,2912
10198,2974
10005,2974
9913,2936
9842,2866
9804,2774
9804,2542
9867,2479
10260,2479
10360,2479
10368,2479
10368,2379
10360,2379
10360,2371
10260,2371
10260,2379
9867,2379
9804,2317
9804,2084
9842,1992
9913,1922
9966,1900
9962,1899
9876,1844
9819,1760
9799,1661
9799,1437
7378,3858
" /> 
<polyline style="fill-rule:evenodd;"
points="17252,12748
17244,12748
17244,12848
17252,12848
17252,12855
17352,12855
17352,12848
17360,12848
17360,12748
17352,12748
17352,12740
17252,12740
17252,12748
" /> 
<polyline style="fill-rule:evenodd;"
points="12931,10054
12931,10054
12861,10101
12798,10142
12755,10151
12755,11046
12730,11171
12675,11253
12658,11278
12098,11839
11991,11910
11865,11935
11480,11935
11616,11991
11647,12090
11310,12427
11305,12421
11234,12492
11239,12498
11234,12503
11305,12574
11310,12568
11316,12574
11386,12503
11381,12498
11718,12161
11810,12190
11818,12169
11981,12006
12194,11918
12231,11918
12828,11320
12828,11142
12846,11049
12901,10964
12916,10953
12892,10929
12836,10794
12836,10647
12892,10512
12995,10408
13130,10352
13277,10352
13314,10368
13314,10202
13377,10140
13760,10140
13760,10148
13860,10148
13860,10140
13868,10140
13868,10040
13860,10040
13860,10032
13760,10032
13760,10040
13377,10040
13314,9977
13314,9745
13352,9653
13408,9597
13395,9589
12931,10054
" /> 
<polyline style="fill-rule:evenodd;"
points="18986,10254
18978,10254
18978,10354
18986,10354
18986,10361
19037,10361
19037,10246
18986,10246
18986,10254
" /> 
<polyline style="fill-rule:evenodd;"
points="15458,8318
15348,8318
15348,8427
15339,8478
15348,8525
15348,8742
15339,8793
15348,8840
15348,9057
15341,9099
15344,9106
15344,9151
15306,9189
15276,9235
15234,9264
15271,9288
15306,9339
15344,9376
15344,9422
15340,9430
15348,9470
15348,9687
15341,9729
15344,9736
15344,9781
15306,9819
15276,9865
15234,9894
15271,9918
15306,9969
15344,10006
15344,10052
15340,10060
15348,10100
15348,10138
15966,9521
15966,8318
15871,8318
15820,8308
15773,8318
15556,8318
15505,8308
15458,8318
" /> 
<polyline style="fill-rule:evenodd;"
points="18928,9496
18822,9567
18696,9592
18690,9592
18690,9629
18636,9629
18653,9654
18690,9691
18690,9737
18687,9745
18695,9785
18695,9976
18737,9934
18829,9896
18924,9896
18958,9930
18958,9467
18928,9496
" /> 
<polyline style="fill-rule:evenodd;"
points="19064,6211
19064,6921
19039,7047
19025,7068
19025,7304
19064,7399
19064,7545
19008,7681
18905,7784
18770,7840
18623,7841
18488,7785
18454,7751
18454,7958
18533,7973
18618,8028
18667,8100
19190,7576
19189,7571
19189,6783
19199,6728
19194,6715
19194,6384
19256,6322
19788,6322
19788,6329
19888,6329
19888,6322
19896,6322
19896,6222
19888,6222
19888,6214
19788,6214
19788,6222
19256,6222
19194,6159
19194,6081
19064,6211
" /> 
<polyline style="fill-rule:evenodd;"
points="19006,1039
18943,1102
18412,1102
18412,1094
18312,1094
18312,1102
17781,1102
17719,1039
17719,847
15502,847
15502,1039
15439,1102
14908,1102
14908,1094
14808,1094
14808,1102
14277,1102
14215,1039
14215,847
13296,847
13315,859
13372,942
13384,1002
13420,1002
13420,1002
13576,1033
13709,1121
13709,1121
13886,1298
13974,1431
14005,1587
13974,1742
13886,1875
13753,1963
13598,1994
13442,1963
13309,1875
13252,1817
12953,1817
12953,1817
12911,1808
12848,1808
12872,1842
12892,1942
12892,2453
12874,2546
12820,2631
12749,2679
12749,4266
12749,4266
12718,4422
12630,4554
12615,4569
13614,5567
13614,5555
13677,5555
13614,5493
13614,5260
13652,5169
13722,5098
13814,5060
13998,5060
14060,5123
14060,5555
14052,5555
14052,5655
14060,5655
14060,5663
14160,5663
14160,5655
14168,5655
14168,5555
14160,5555
14160,5123
14223,5060
14281,5060
14276,5059
14210,4869
14221,4675
14155,4720
14056,4740
13564,4740
13471,4722
13386,4668
13329,4584
13309,4485
13309,3894
13327,3802
13381,3717
13408,3698
13352,3642
13314,3550
13314,3318
13377,3255
13760,3255
13760,3263
13860,3263
13860,3255
13868,3255
13868,3155
13860,3155
13860,2723
13760,2723
13760,3155
13377,3155
13314,3093
13314,2860
13352,2769
13422,2698
13514,2660
13698,2660
13760,2723
13860,2723
13923,2660
14106,2660
14198,2698
14232,2733
14253,2683
14323,2613
14415,2575
14746,2575
14808,2637
14808,3267
14800,3267
14800,3367
14808,3367
14808,3374
14908,3374
14908,3367
15439,3367
15502,3429
15502,3858
15501,3861
15637,3861
15627,3809
15627,2903
15644,2810
15667,2775
15502,2775
15502,3204
15439,3267
14908,3267
14908,2637
14971,2575
15301,2575
15393,2613
15464,2683
15502,2775
15667,2775
15677,2760
15660,2760
15503,2695
15382,2575
15317,2418
15317,2248
15382,2091
15502,1971
15659,1906
15829,1905
15986,1970
16106,2090
16171,2247
16171,2417
16106,2574
16033,2648
16079,2648
16140,2659
16197,2648
16394,2648
16455,2659
16512,2648
16709,2648
16764,2658
16777,2653
16813,2653
16870,2710
16886,2720
16924,2775
16930,2761
16974,2716
16974,2715
17037,2653
17073,2653
17083,2656
17092,2653
17128,2653
17190,2714
17190,2653
17192,2653
17114,2575
17049,2418
17049,2248
17114,2091
17234,1971
17391,1906
17561,1905
17718,1970
17838,2090
17903,2247
17903,2417
17838,2574
17718,2694
17561,2759
17549,2759
17551,2761
17589,2853
17589,3243
17526,3306
17289,3306
17289,3298
17219,3298
17211,3306
17182,3306
17182,3406
17211,3406
17274,3468
17274,3858
17236,3950
17191,3995
17191,3996
17128,4059
17092,4059
17083,4055
17073,4059
17037,4059
16975,3997
16975,4059
16939,4059
16939,4299
17107,4368
17250,4511
17327,4696
17327,4898
17250,5084
17212,5122
17258,5188
17278,5287
17278,5878
17260,5970
17205,6056
17122,6113
17117,6114
17200,6168
17258,6251
17278,6350
17278,6565
17581,6261
17581,5798
17587,5772
17606,5672
17678,5565
17982,5261
17938,5242
17916,5152
18199,4868
18205,4874
18275,4803
18270,4798
18128,4798
17845,5081
17754,5059
17688,4869
17700,4668
17754,4536
17845,4514
18128,4798
18270,4798
18275,4792
18205,4721
18199,4727
17916,4444
17938,4353
18128,4287
18290,4296
18314,4177
18385,4071
18436,4020
18412,3996
18412,3367
18312,3367
18312,3996
18250,4059
17919,4059
17827,4020
17757,3950
17719,3858
17719,3468
17589,3468
17589,3858
17551,3950
17480,4020
17388,4059
17352,4059
17289,3996
17289,3406
17526,3406
17589,3468
17719,3468
17719,3429
17781,3367
18312,3367
18412,3367
18420,3367
18420,3267
18412,3267
18412,2637
18312,2637
18312,3267
17781,3267
17719,3204
17719,2775
17757,2683
17827,2613
17919,2575
18250,2575
18312,2637
18412,2637
18475,2575
18805,2575
18842,2590
19015,2417
19018,2415
19121,2346
19189,2332
19189,2256
19207,2163
19261,2078
19345,2021
19444,2001
20110,2001
20119,1986
20207,1928
20260,1917
20260,1264
19006,1264
19006,1693
18968,1785
18897,1855
18805,1894
18475,1894
18412,1831
18412,1202
18312,1202
18312,1831
18250,1894
17919,1894
17827,1855
17757,1785
17719,1693
17719,1264
15502,1264
15502,1693
15464,1785
15393,1855
15301,1894
14971,1894
14908,1831
14908,1202
14808,1202
14808,1831
14746,1894
14415,1894
14323,1855
14253,1785
14215,1693
14215,1264
14277,1202
14808,1202
14908,1202
15439,1202
15502,1264
17719,1264
17781,1202
18312,1202
18412,1202
18943,1202
19006,1264
20260,1264
20260,847
19006,847
19006,1039
" /> 
<polyline style="fill-rule:evenodd;"
points="14645,4792
14650,4798
14645,4803
14716,4874
14721,4868
14727,4874
14797,4803
14792,4798
14797,4792
14727,4721
14721,4727
14716,4721
14645,4792
" /> 
</g>
<g style="fill:#FFFFFF; fill-opacity:1.0; 
stroke:#FFFFFF; stroke-width:100; stroke-opacity:1; 
stroke-linecap:round; stroke-linejoin:round;">
</g>
<g style="fill:#FFFFFF; fill-opacity:1.0; 
stroke:#FFFFFF; stroke-width:0; stroke-opacity:1; 
stroke-linecap:round; stroke-linejoin:round;">
<circle cx="17869.7" cy="12787.8" r="78.7402" /> 
</g>
<g style="fill:#FFFFFF; fill-opacity:1.0; 
stroke:#FFFFFF; stroke-width:39.3701; stroke-opacity:1; 
stroke-linecap:round; stroke-linejoin:round;">
</g>
<g style="fill:#FFFFFF; fill-opacity:1.0; 
stroke:#FFFFFF; stroke-width:0; stroke-opacity:1; 
stroke-linecap:round; stroke-linejoin:round;">
<circle cx="17672.8" cy="5484.65" r="78.7402" /> 
</g>
<g style="fill:#FFFFFF; fill-opacity:1.0; 
stroke:#FFFFFF; stroke-width:39.3701; stroke-opacity:1; 
stroke-linecap:round; stroke-linejoin:round;">
</g>
<g style="fill:#FFFFFF; fill-opacity:1.0; 
stroke:#FFFFFF; stroke-width:0; stroke-opacity:1; 
stroke-linecap:round; stroke-linejoin:round;">
<circle cx="18972.1" cy="9461.02" r="78.7402" /> 
</g>
<g style="fill:#FFFFFF; fill-opacity:1.0; 
stroke:#FFFFFF; stroke-width:39.3701; stroke-opacity:1; 
stroke-linecap:round; stroke-linejoin:round;">
</g>
<g style="fill:#FFFFFF; fill-opacity:1.0; 
stroke:#FFFFFF; stroke-width:0; stroke-opacity:1; 
stroke-linecap:round; stroke-linejoin:round;">
<circle cx="18696.5" cy="7472.84" r="78.7402" /> 
</g>
<g style="fill:#FFFFFF; fill-opacity:1.0; 
stroke:#FFFFFF; stroke-width:39.3701; stroke-opacity:1; 
stroke-linecap:round; stroke-linejoin:round;">
</g>
<g style="fill:#FFFFFF; fill-opacity:1.0; 
stroke:#FFFFFF; stroke-width:0; stroke-opacity:1; 
stroke-linecap:round; stroke-linejoin:round;">
<circle cx="16216.1" cy="11823.2" r="78.7402" /> 
</g>
<g style="fill:#FFFFFF; fill-opacity:1.0; 
stroke:#FFFFFF; stroke-width:39.3701; stroke-opacity:1; 
stroke-linecap:round; stroke-linejoin:round;">
</g>
<g style="fill:#FFFFFF; fill-opacity:1.0; 
stroke:#FFFFFF; stroke-width:0; stroke-opacity:1; 
stroke-linecap:round; stroke-linejoin:round;">
<circle cx="13834.3" cy="12354.7" r="78.7402" /> 
</g>
<g style="fill:#FFFFFF; fill-opacity:1.0; 
stroke:#FFFFFF; stroke-width:39.3701; stroke-opacity:1; 
stroke-linecap:round; stroke-linejoin:round;">
</g>
<g style="fill:#FFFFFF; fill-opacity:1.0; 
stroke:#FFFFFF; stroke-width:0; stroke-opacity:1; 
stroke-linecap:round; stroke-linejoin:round;">
<circle cx="13598" cy="1587.01" r="78.7402" /> 
</g>
<g style="fill:#FFFFFF; fill-opacity:1.0; 
stroke:#FFFFFF; stroke-width:39.3701; stroke-opacity:1; 
stroke-linecap:round; stroke-linejoin:round;">
</g>
<g style="fill:#FFFFFF; fill-opacity:1.0; 
stroke:#FFFFFF; stroke-width:0; stroke-opacity:1; 
stroke-linecap:round; stroke-linejoin:round;">
<circle cx="13204.3" cy="10720.9" r="78.7402" /> 
</g>
<g style="fill:#FFFFFF; fill-opacity:1.0; 
stroke:#FFFFFF; stroke-width:39.3701; stroke-opacity:1; 
stroke-linecap:round; stroke-linejoin:round;">
</g>
<g style="fill:#FFFFFF; fill-opacity:1.0; 
stroke:#FFFFFF; stroke-width:0; stroke-opacity:1; 
stroke-linecap:round; stroke-linejoin:round;">
<circle cx="9306.7" cy="9815.35" r="78.7402" /> 
</g>
<g style="fill:#FFFFFF; fill-opacity:1.0; 
stroke:#FFFFFF; stroke-width:39.3701; stroke-opacity:1; 
stroke-linecap:round; stroke-linejoin:round;">
</g>
<g style="fill:#FFFFFF; fill-opacity:1.0; 
stroke:#FFFFFF; stroke-width:0; stroke-opacity:1; 
stroke-linecap:round; stroke-linejoin:round;">
<circle cx="18066.5" cy="11764.2" r="78.7402" /> 
</g>
<g style="fill:#FFFFFF; fill-opacity:1.0; 
stroke:#FFFFFF; stroke-width:39.3701; stroke-opacity:1; 
stroke-linecap:round; stroke-linejoin:round;">
</g>
<g style="fill:#FFFFFF; fill-opacity:1.0; 
stroke:#FFFFFF; stroke-width:0; stroke-opacity:1; 
stroke-linecap:round; stroke-linejoin:round;">
<circle cx="19838.2" cy="2650" r="200" /> 
</g>
<g style="fill:#FFFFFF; fill-opacity:1.0; 
stroke:#FFFFFF; stroke-width:39.3701; stroke-opacity:1; 
stroke-linecap:round; stroke-linejoin:round;">
</g>
<g style="fill:#FFFFFF; fill-opacity:1.0; 
stroke:#FFFFFF; stroke-width:0; stroke-opacity:1; 
stroke-linecap:round; stroke-linejoin:round;">
<circle cx="19838.2" cy="3555.51" r="200" /> 
</g>
<g style="fill:#FFFFFF; fill-opacity:1.0; 
stroke:#FFFFFF; stroke-width:39.3701; stroke-opacity:1; 
stroke-linecap:round; stroke-linejoin:round;">
</g>
<g style="fill:#FFFFFF; fill-opacity:1.0; 
stroke:#FFFFFF; stroke-width:0; stroke-opacity:1; 
stroke-linecap:round; stroke-linejoin:round;">
<circle cx="19838.2" cy="4461.02" r="200" /> 
</g>
<g style="fill:#FFFFFF; fill-opacity:1.0; 
stroke:#FFFFFF; stroke-width:39.3701; stroke-opacity:1; 
stroke-linecap:round; stroke-linejoin:round;">
</g>
<g style="fill:#FFFFFF; fill-opacity:1.0; 
stroke:#FFFFFF; stroke-width:0; stroke-opacity:1; 
stroke-linecap:round; stroke-linejoin:round;">
<circle cx="19838.2" cy="5366.54" r="200" /> 
</g>
<g style="fill:#FFFFFF; fill-opacity:1.0; 
stroke:#FFFFFF; stroke-width:39.3701; stroke-opacity:1; 
stroke-linecap:round; stroke-linejoin:round;">
</g>
<g style="fill:#FFFFFF; fill-opacity:1.0; 
stroke:#FFFFFF; stroke-width:0; stroke-opacity:1; 
stroke-linecap:round; stroke-linejoin:round;">
<circle cx="19838.2" cy="6272.05" r="200" /> 
</g>
<g style="fill:#FFFFFF; fill-opacity:1.0; 
stroke:#FFFFFF; stroke-width:39.3701; stroke-opacity:1; 
stroke-linecap:round; stroke-linejoin:round;">
</g>
<g style="fill:#FFFFFF; fill-opacity:1.0; 
stroke:#FFFFFF; stroke-width:0; stroke-opacity:1; 
stroke-linecap:round; stroke-linejoin:round;">
<circle cx="19838.2" cy="7177.56" r="200" /> 
</g>
<g style="fill:#FFFFFF; fill-opacity:1.0; 
stroke:#FFFFFF; stroke-width:39.3701; stroke-opacity:1; 
stroke-linecap:round; stroke-linejoin:round;">
</g>
<g style="fill:#FFFFFF; fill-opacity:1.0; 
stroke:#FFFFFF; stroke-width:0; stroke-opacity:1; 
stroke-linecap:round; stroke-linejoin:round;">
<circle cx="12310.6" cy="12498" r="160" /> 
</g>
<g style="fill:#FFFFFF; fill-opacity:1.0; 
stroke:#FFFFFF; stroke-width:39.3701; stroke-opacity:1; 
stroke-linecap:round; stroke-linejoin:round;">
</g>
<g style="fill:#FFFFFF; fill-opacity:1.0; 
stroke:#FFFFFF; stroke-width:0; stroke-opacity:1; 
stroke-linecap:round; stroke-linejoin:round;">
<circle cx="11310.6" cy="12498" r="160" /> 
</g>
<g style="fill:#FFFFFF; fill-opacity:1.0; 
stroke:#FFFFFF; stroke-width:39.3701; stroke-opacity:1; 
stroke-linecap:round; stroke-linejoin:round;">
</g>
<g style="fill:#FFFFFF; fill-opacity:1.0; 
stroke:#FFFFFF; stroke-width:0; stroke-opacity:1; 
stroke-linecap:round; stroke-linejoin:round;">
<circle cx="2510.63" cy="11098" r="160" /> 
</g>
<g style="fill:#FFFFFF; fill-opacity:1.0; 
stroke:#FFFFFF; stroke-width:39.3701; stroke-opacity:1; 
stroke-linecap:round; stroke-linejoin:round;">
</g>
<g style="fill:#FFFFFF; fill-opacity:1.0; 
stroke:#FFFFFF; stroke-width:0; stroke-opacity:1; 
stroke-linecap:round; stroke-linejoin:round;">
<circle cx="1510.63" cy="11098" r="160" /> 
</g>
<g style="fill:#FFFFFF; fill-opacity:1.0; 
stroke:#FFFFFF; stroke-width:39.3701; stroke-opacity:1; 
stroke-linecap:round; stroke-linejoin:round;">
</g>
<g style="fill:#FFFFFF; fill-opacity:1.0; 
stroke:#FFFFFF; stroke-width:0; stroke-opacity:1; 
stroke-linecap:round; stroke-linejoin:round;">
<circle cx="4610.63" cy="8598.03" r="160" /> 
</g>
<g style="fill:#FFFFFF; fill-opacity:1.0; 
stroke:#FFFFFF; stroke-width:39.3701; stroke-opacity:1; 
stroke-linecap:round; stroke-linejoin:round;">
</g>
<g style="fill:#FFFFFF; fill-opacity:1.0; 
stroke:#FFFFFF; stroke-width:0; stroke-opacity:1; 
stroke-linecap:round; stroke-linejoin:round;">
<circle cx="5610.63" cy="8598.03" r="160" /> 
</g>
<g style="fill:#FFFFFF; fill-opacity:1.0; 
stroke:#FFFFFF; stroke-width:39.3701; stroke-opacity:1; 
stroke-linecap:round; stroke-linejoin:round;">
</g>
<g style="fill:#FFFFFF; fill-opacity:1.0; 
stroke:#FFFFFF; stroke-width:0; stroke-opacity:1; 
stroke-linecap:round; stroke-linejoin:round;">
<circle cx="2010.63" cy="6998.03" r="160" /> 
</g>
<g style="fill:#FFFFFF; fill-opacity:1.0; 
stroke:#FFFFFF; stroke-width:39.3701; stroke-opacity:1; 
stroke-linecap:round; stroke-linejoin:round;">
</g>
<g style="fill:#FFFFFF; fill-opacity:1.0; 
stroke:#FFFFFF; stroke-width:0; stroke-opacity:1; 
stroke-linecap:round; stroke-linejoin:round;">
<circle cx="1010.63" cy="6998.03" r="160" /> 
</g>
<g style="fill:#FFFFFF; fill-opacity:1.0; 
stroke:#FFFFFF; stroke-width:39.3701; stroke-opacity:1; 
stroke-linecap:round; stroke-linejoin:round;">
</g>
<g style="fill:#FFFFFF; fill-opacity:1.0; 
stroke:#FFFFFF; stroke-width:0; stroke-opacity:1; 
stroke-linecap:round; stroke-linejoin:round;">
<circle cx="3610.63" cy="3598.03" r="200" /> 
</g>
<g style="fill:#FFFFFF; fill-opacity:1.0; 
stroke:#FFFFFF; stroke-width:39.3701; stroke-opacity:1; 
stroke-linecap:round; stroke-linejoin:round;">
</g>
<g style="fill:#FFFFFF; fill-opacity:1.0; 
stroke:#FFFFFF; stroke-width:0; stroke-opacity:1; 
stroke-linecap:round; stroke-linejoin:round;">
<circle cx="2610.63" cy="3598.03" r="200" /> 
</g>
<g style="fill:#FFFFFF; fill-opacity:1.0; 
stroke:#FFFFFF; stroke-width:39.3701; stroke-opacity:1; 
stroke-linecap:round; stroke-linejoin:round;">
</g>
<g style="fill:#FFFFFF; fill-opacity:1.0; 
stroke:#FFFFFF; stroke-width:0; stroke-opacity:1; 
stroke-linecap:round; stroke-linejoin:round;">
<circle cx="1610.63" cy="3598.03" r="200" /> 
</g>
<g style="fill:#FFFFFF; fill-opacity:1.0; 
stroke:#FFFFFF; stroke-width:39.3701; stroke-opacity:1; 
stroke-linecap:round; stroke-linejoin:round;">
</g>
<g style="fill:#FFFFFF; fill-opacity:1.0; 
stroke:#FFFFFF; stroke-width:0; stroke-opacity:1; 
stroke-linecap:round; stroke-linejoin:round;">
<circle cx="8210.63" cy="9398.03" r="200" /> 
</g>
<g style="fill:#FFFFFF; fill-opacity:1.0; 
stroke:#FFFFFF; stroke-width:39.3701; stroke-opacity:1; 
stroke-linecap:round; stroke-linejoin:round;">
</g>
<g style="fill:#FFFFFF; fill-opacity:1.0; 
stroke:#FFFFFF; stroke-width:0; stroke-opacity:1; 
stroke-linecap:round; stroke-linejoin:round;">
<circle cx="7210.63" cy="9398.03" r="200" /> 
</g>
<g style="fill:#FFFFFF; fill-opacity:1.0; 
stroke:#FFFFFF; stroke-width:39.3701; stroke-opacity:1; 
stroke-linecap:round; stroke-linejoin:round;">
</g>
<g style="fill:#FFFFFF; fill-opacity:1.0; 
stroke:#FFFFFF; stroke-width:0; stroke-opacity:1; 
stroke-linecap:round; stroke-linejoin:round;">
<circle cx="8210.63" cy="10398" r="200" /> 
</g>
<g style="fill:#FFFFFF; fill-opacity:1.0; 
stroke:#FFFFFF; stroke-width:39.3701; stroke-opacity:1; 
stroke-linecap:round; stroke-linejoin:round;">
</g>
<g style="fill:#FFFFFF; fill-opacity:1.0; 
stroke:#FFFFFF; stroke-width:0; stroke-opacity:1; 
stroke-linecap:round; stroke-linejoin:round;">
<circle cx="7210.63" cy="10398" r="200" /> 
</g>
<g style="fill:#FFFFFF; fill-opacity:1.0; 
stroke:#FFFFFF; stroke-width:39.3701; stroke-opacity:1; 
stroke-linecap:round; stroke-linejoin:round;">
</g>
<g style="fill:#FFFFFF; fill-opacity:1.0; 
stroke:#FFFFFF; stroke-width:0; stroke-opacity:1; 
stroke-linecap:round; stroke-linejoin:round;">
<circle cx="8210.63" cy="11398" r="200" /> 
</g>
<g style="fill:#FFFFFF; fill-opacity:1.0; 
stroke:#FFFFFF; stroke-width:39.3701; stroke-opacity:1; 
stroke-linecap:round; stroke-linejoin:round;">
</g>
<g style="fill:#FFFFFF; fill-opacity:1.0; 
stroke:#FFFFFF; stroke-width:0; stroke-opacity:1; 
stroke-linecap:round; stroke-linejoin:round;">
<circle cx="7210.63" cy="11398" r="200" /> 
</g>
<g style="fill:#FFFFFF; fill-opacity:1.0; 
stroke:#FFFFFF; stroke-width:39.3701; stroke-opacity:1; 
stroke-linecap:round; stroke-linejoin:round;">
</g>
<g style="fill:#FFFFFF; fill-opacity:1.0; 
stroke:#FFFFFF; stroke-width:0; stroke-opacity:1; 
stroke-linecap:round; stroke-linejoin:round;">
<circle cx="7510.63" cy="6698.03" r="157.48" /> 
</g>
<g style="fill:#FFFFFF; fill-opacity:1.0; 
stroke:#FFFFFF; stroke-width:39.3701; stroke-opacity:1; 
stroke-linecap:round; stroke-linejoin:round;">
</g>
<g style="fill:#FFFFFF; fill-opacity:1.0; 
stroke:#FFFFFF; stroke-width:0; stroke-opacity:1; 
stroke-linecap:round; stroke-linejoin:round;">
<circle cx="9479.14" cy="6698.03" r="157.48" /> 
</g>
<g style="fill:#FFFFFF; fill-opacity:1.0; 
stroke:#FFFFFF; stroke-width:39.3701; stroke-opacity:1; 
stroke-linecap:round; stroke-linejoin:round;">
</g>
<g style="fill:#FFFFFF; fill-opacity:1.0; 
stroke:#FFFFFF; stroke-width:0; stroke-opacity:1; 
stroke-linecap:round; stroke-linejoin:round;">
<circle cx="15744.6" cy="2333.03" r="177" /> 
</g>
<g style="fill:#FFFFFF; fill-opacity:1.0; 
stroke:#FFFFFF; stroke-width:39.3701; stroke-opacity:1; 
stroke-linecap:round; stroke-linejoin:round;">
</g>
<g style="fill:#FFFFFF; fill-opacity:1.0; 
stroke:#FFFFFF; stroke-width:0; stroke-opacity:1; 
stroke-linecap:round; stroke-linejoin:round;">
<circle cx="17476.6" cy="2333.03" r="177" /> 
</g>
<g style="fill:#FFFFFF; fill-opacity:1.0; 
stroke:#FFFFFF; stroke-width:39.3701; stroke-opacity:1; 
stroke-linecap:round; stroke-linejoin:round;">
</g>
<g style="fill:#FFFFFF; fill-opacity:1.0; 
stroke:#FFFFFF; stroke-width:0; stroke-opacity:1; 
stroke-linecap:round; stroke-linejoin:round;">
<circle cx="12510.6" cy="6137.03" r="157.5" /> 
</g>
<g style="fill:#FFFFFF; fill-opacity:1.0; 
stroke:#FFFFFF; stroke-width:39.3701; stroke-opacity:1; 
stroke-linecap:round; stroke-linejoin:round;">
</g>
<g style="fill:#FFFFFF; fill-opacity:1.0; 
stroke:#FFFFFF; stroke-width:0; stroke-opacity:1; 
stroke-linecap:round; stroke-linejoin:round;">
<circle cx="12510.6" cy="8059.03" r="157.5" /> 
</g>
<g style="fill:#FFFFFF; fill-opacity:1.0; 
stroke:#FFFFFF; stroke-width:39.3701; stroke-opacity:1; 
stroke-linecap:round; stroke-linejoin:round;">
</g>
<g style="fill:#000000; fill-opacity:1.0; 
stroke:#000000; stroke-width:39.3701; stroke-opacity:1; 
stroke-linecap:round; stroke-linejoin:round;">
</g> 
</svg>
