<?xml version="1.0" standalone="no"?>
 <!DOCTYPE svg PUBLIC "-//W3C//DTD SVG 1.1//EN" 
 "http://www.w3.org/Graphics/SVG/1.1/DTD/svg11.dtd"> 
<svg xmlns="http://www.w3.org/2000/svg" version="1.1" 
    width="5.34162cm" height="3.65252cm" viewBox="0 0 21030 14380 ">
<title>SVG Picture created as cam-chassis-B_Cu.svg date 2015/07/29 04:02:44 </title>
  <desc>Picture generated by PCBNEW </desc>
<g style="fill:#000000; fill-opacity:1;stroke:#000000; stroke-opacity:1;
stroke-linecap:round; stroke-linejoin:round; "
 transform="translate(0 0) scale(1 1)">
</g>
<g style="fill:#000000; fill-opacity:0.0; 
stroke:#000000; stroke-width:-0.000393701; stroke-opacity:1; 
stroke-linecap:round; stroke-linejoin:round;">
</g>
<g style="fill:#000000; fill-opacity:0.0; 
stroke:#000000; stroke-width:39.3701; stroke-opacity:1; 
stroke-linecap:round; stroke-linejoin:round;">
<path d="M719 14185
L719 13398
" />
<path d="M20994 14185
L719 14185
" />
<path d="M20994 13398
L20994 14185
" />
<path d="M719 13398
L719 2177
" />
<path d="M20994 2177
L20994 13398
" />
<path d="M719 577
L20994 577
" />
</g>
<g style="fill:#000000; fill-opacity:0.0; 
stroke:#000000; stroke-width:0; stroke-opacity:1; 
stroke-linecap:round; stroke-linejoin:round;">
</g>
<g style="fill:#000000; fill-opacity:1.0; 
stroke:#000000; stroke-width:0; stroke-opacity:1; 
stroke-linecap:round; stroke-linejoin:round;">
<polyline style="fill-rule:evenodd;"
points="798,3043
798,2256
1585,2256
1585,3043
798,3043
" /> 
<polyline style="fill-rule:evenodd;"
points="798,3949
798,3161
1585,3161
1585,3949
798,3949
" /> 
<polyline style="fill-rule:evenodd;"
points="798,4854
798,4067
1585,4067
1585,4854
798,4854
" /> 
<polyline style="fill-rule:evenodd;"
points="798,5760
798,4972
1585,4972
1585,5760
798,5760
" /> 
<polyline style="fill-rule:evenodd;"
points="798,6665
798,5878
1585,5878
1585,6665
798,6665
" /> 
<polyline style="fill-rule:evenodd;"
points="798,7571
798,6783
1585,6783
1585,7571
798,7571
" /> 
<circle cx="8719.37" cy="12498" r="330" /> 
</g>
<g style="fill:#000000; fill-opacity:1.0; 
stroke:#000000; stroke-width:39.3701; stroke-opacity:1; 
stroke-linecap:round; stroke-linejoin:round;">
</g>
<g style="fill:#000000; fill-opacity:1.0; 
stroke:#000000; stroke-width:0; stroke-opacity:1; 
stroke-linecap:round; stroke-linejoin:round;">
<circle cx="9719.37" cy="12498" r="330" /> 
</g>
<g style="fill:#000000; fill-opacity:1.0; 
stroke:#000000; stroke-width:39.3701; stroke-opacity:1; 
stroke-linecap:round; stroke-linejoin:round;">
</g>
<g style="fill:#000000; fill-opacity:1.0; 
stroke:#000000; stroke-width:0; stroke-opacity:1; 
stroke-linecap:round; stroke-linejoin:round;">
<circle cx="18519.4" cy="11098" r="330" /> 
</g>
<g style="fill:#000000; fill-opacity:1.0; 
stroke:#000000; stroke-width:39.3701; stroke-opacity:1; 
stroke-linecap:round; stroke-linejoin:round;">
</g>
<g style="fill:#000000; fill-opacity:1.0; 
stroke:#000000; stroke-width:0; stroke-opacity:1; 
stroke-linecap:round; stroke-linejoin:round;">
<circle cx="19519.4" cy="11098" r="330" /> 
</g>
<g style="fill:#000000; fill-opacity:1.0; 
stroke:#000000; stroke-width:39.3701; stroke-opacity:1; 
stroke-linecap:round; stroke-linejoin:round;">
</g>
<g style="fill:#000000; fill-opacity:1.0; 
stroke:#000000; stroke-width:0; stroke-opacity:1; 
stroke-linecap:round; stroke-linejoin:round;">
<circle cx="16419.4" cy="8598.03" r="330" /> 
</g>
<g style="fill:#000000; fill-opacity:1.0; 
stroke:#000000; stroke-width:39.3701; stroke-opacity:1; 
stroke-linecap:round; stroke-linejoin:round;">
</g>
<g style="fill:#000000; fill-opacity:1.0; 
stroke:#000000; stroke-width:0; stroke-opacity:1; 
stroke-linecap:round; stroke-linejoin:round;">
<circle cx="15419.4" cy="8598.03" r="330" /> 
</g>
<g style="fill:#000000; fill-opacity:1.0; 
stroke:#000000; stroke-width:39.3701; stroke-opacity:1; 
stroke-linecap:round; stroke-linejoin:round;">
</g>
<g style="fill:#000000; fill-opacity:1.0; 
stroke:#000000; stroke-width:0; stroke-opacity:1; 
stroke-linecap:round; stroke-linejoin:round;">
<circle cx="19019.4" cy="6998.03" r="330" /> 
</g>
<g style="fill:#000000; fill-opacity:1.0; 
stroke:#000000; stroke-width:39.3701; stroke-opacity:1; 
stroke-linecap:round; stroke-linejoin:round;">
</g>
<g style="fill:#000000; fill-opacity:1.0; 
stroke:#000000; stroke-width:0; stroke-opacity:1; 
stroke-linecap:round; stroke-linejoin:round;">
<circle cx="20019.4" cy="6998.03" r="330" /> 
</g>
<g style="fill:#000000; fill-opacity:1.0; 
stroke:#000000; stroke-width:39.3701; stroke-opacity:1; 
stroke-linecap:round; stroke-linejoin:round;">
</g>
<g style="fill:#000000; fill-opacity:1.0; 
stroke:#000000; stroke-width:0; stroke-opacity:1; 
stroke-linecap:round; stroke-linejoin:round;">
<polyline style="fill-rule:evenodd;"
points="17759,3998
17079,3998
17079,3198
17759,3198
17759,3998
" /> 
</g>
<g style="fill:#000000; fill-opacity:1.0; 
stroke:#000000; stroke-width:680; stroke-opacity:1; 
stroke-linecap:round; stroke-linejoin:round;">
</g>
<g style="fill:#000000; fill-opacity:0.0; 
stroke:#000000; stroke-width:680; stroke-opacity:1; 
stroke-linecap:round; stroke-linejoin:round;">
<path d="M18419 3658
L18419 3538
" />
<path d="M19419 3658
L19419 3538
" />
</g>
<g style="fill:#000000; fill-opacity:0.0; 
stroke:#000000; stroke-width:0; stroke-opacity:1; 
stroke-linecap:round; stroke-linejoin:round;">
</g>
<g style="fill:#000000; fill-opacity:1.0; 
stroke:#000000; stroke-width:0; stroke-opacity:1; 
stroke-linecap:round; stroke-linejoin:round;">
<polyline style="fill-rule:evenodd;"
points="12479,9738
12479,9058
13159,9058
13159,9738
12479,9738
" /> 
</g>
<g style="fill:#000000; fill-opacity:1.0; 
stroke:#000000; stroke-width:680; stroke-opacity:1; 
stroke-linecap:round; stroke-linejoin:round;">
</g>
<g style="fill:#000000; fill-opacity:0.0; 
stroke:#000000; stroke-width:680; stroke-opacity:1; 
stroke-linecap:round; stroke-linejoin:round;">
<path d="M13819 9398
L13819 9398
" />
<path d="M12819 10398
L12819 10398
" />
<path d="M13819 10398
L13819 10398
" />
<path d="M12819 11398
L12819 11398
" />
<path d="M13819 11398
L13819 11398
" />
</g>
<g style="fill:#000000; fill-opacity:0.0; 
stroke:#000000; stroke-width:0; stroke-opacity:1; 
stroke-linecap:round; stroke-linejoin:round;">
</g>
<g style="fill:#000000; fill-opacity:1.0; 
stroke:#000000; stroke-width:0; stroke-opacity:1; 
stroke-linecap:round; stroke-linejoin:round;">
<polyline style="fill-rule:evenodd;"
points="13775,6442
13775,6953
13263,6953
13263,6442
13775,6442
" /> 
<circle cx="11550.9" cy="6698.03" r="255.906" /> 
</g>
<g style="fill:#000000; fill-opacity:1.0; 
stroke:#000000; stroke-width:39.3701; stroke-opacity:1; 
stroke-linecap:round; stroke-linejoin:round;">
</g>
<g style="fill:#000000; fill-opacity:1.0; 
stroke:#000000; stroke-width:0; stroke-opacity:1; 
stroke-linecap:round; stroke-linejoin:round;">
<circle cx="5285.37" cy="2333.03" r="177" /> 
</g>
<g style="fill:#000000; fill-opacity:1.0; 
stroke:#000000; stroke-width:39.3701; stroke-opacity:1; 
stroke-linecap:round; stroke-linejoin:round;">
</g>
<g style="fill:#000000; fill-opacity:1.0; 
stroke:#000000; stroke-width:0; stroke-opacity:1; 
stroke-linecap:round; stroke-linejoin:round;">
<circle cx="3553.37" cy="2333.03" r="177" /> 
</g>
<g style="fill:#000000; fill-opacity:1.0; 
stroke:#000000; stroke-width:39.3701; stroke-opacity:1; 
stroke-linecap:round; stroke-linejoin:round;">
</g>
<g style="fill:#000000; fill-opacity:1.0; 
stroke:#000000; stroke-width:0; stroke-opacity:1; 
stroke-linecap:round; stroke-linejoin:round;">
<circle cx="8519.37" cy="6137.03" r="295.5" /> 
</g>
<g style="fill:#000000; fill-opacity:1.0; 
stroke:#000000; stroke-width:39.3701; stroke-opacity:1; 
stroke-linecap:round; stroke-linejoin:round;">
</g>
<g style="fill:#000000; fill-opacity:1.0; 
stroke:#000000; stroke-width:0; stroke-opacity:1; 
stroke-linecap:round; stroke-linejoin:round;">
<circle cx="8519.37" cy="8059.03" r="295.5" /> 
</g>
<g style="fill:#000000; fill-opacity:1.0; 
stroke:#000000; stroke-width:39.3701; stroke-opacity:1; 
stroke-linecap:round; stroke-linejoin:round;">
</g>
<g style="fill:#000000; fill-opacity:1.0; 
stroke:#000000; stroke-width:0; stroke-opacity:1; 
stroke-linecap:round; stroke-linejoin:round;">
<circle cx="3160.31" cy="12787.8" r="118.11" /> 
</g>
<g style="fill:#000000; fill-opacity:1.0; 
stroke:#000000; stroke-width:39.3701; stroke-opacity:1; 
stroke-linecap:round; stroke-linejoin:round;">
</g>
<g style="fill:#000000; fill-opacity:1.0; 
stroke:#000000; stroke-width:0; stroke-opacity:1; 
stroke-linecap:round; stroke-linejoin:round;">
<circle cx="3357.16" cy="5484.65" r="118.11" /> 
</g>
<g style="fill:#000000; fill-opacity:1.0; 
stroke:#000000; stroke-width:39.3701; stroke-opacity:1; 
stroke-linecap:round; stroke-linejoin:round;">
</g>
<g style="fill:#000000; fill-opacity:1.0; 
stroke:#000000; stroke-width:0; stroke-opacity:1; 
stroke-linecap:round; stroke-linejoin:round;">
<circle cx="2057.95" cy="9461.02" r="118.11" /> 
</g>
<g style="fill:#000000; fill-opacity:1.0; 
stroke:#000000; stroke-width:39.3701; stroke-opacity:1; 
stroke-linecap:round; stroke-linejoin:round;">
</g>
<g style="fill:#000000; fill-opacity:1.0; 
stroke:#000000; stroke-width:0; stroke-opacity:1; 
stroke-linecap:round; stroke-linejoin:round;">
<circle cx="4813.85" cy="11823.2" r="118.11" /> 
</g>
<g style="fill:#000000; fill-opacity:1.0; 
stroke:#000000; stroke-width:39.3701; stroke-opacity:1; 
stroke-linecap:round; stroke-linejoin:round;">
</g>
<g style="fill:#000000; fill-opacity:1.0; 
stroke:#000000; stroke-width:0; stroke-opacity:1; 
stroke-linecap:round; stroke-linejoin:round;">
<circle cx="2333.54" cy="7472.84" r="118.11" /> 
</g>
<g style="fill:#000000; fill-opacity:1.0; 
stroke:#000000; stroke-width:39.3701; stroke-opacity:1; 
stroke-linecap:round; stroke-linejoin:round;">
</g>
<g style="fill:#000000; fill-opacity:1.0; 
stroke:#000000; stroke-width:0; stroke-opacity:1; 
stroke-linecap:round; stroke-linejoin:round;">
<circle cx="7195.74" cy="12354.7" r="118.11" /> 
</g>
<g style="fill:#000000; fill-opacity:1.0; 
stroke:#000000; stroke-width:39.3701; stroke-opacity:1; 
stroke-linecap:round; stroke-linejoin:round;">
</g>
<g style="fill:#000000; fill-opacity:1.0; 
stroke:#000000; stroke-width:0; stroke-opacity:1; 
stroke-linecap:round; stroke-linejoin:round;">
<circle cx="7431.96" cy="1587.01" r="118.11" /> 
</g>
<g style="fill:#000000; fill-opacity:1.0; 
stroke:#000000; stroke-width:39.3701; stroke-opacity:1; 
stroke-linecap:round; stroke-linejoin:round;">
</g>
<g style="fill:#000000; fill-opacity:1.0; 
stroke:#000000; stroke-width:0; stroke-opacity:1; 
stroke-linecap:round; stroke-linejoin:round;">
<circle cx="7825.67" cy="10720.9" r="118.11" /> 
</g>
<g style="fill:#000000; fill-opacity:1.0; 
stroke:#000000; stroke-width:39.3701; stroke-opacity:1; 
stroke-linecap:round; stroke-linejoin:round;">
</g>
<g style="fill:#000000; fill-opacity:1.0; 
stroke:#000000; stroke-width:0; stroke-opacity:1; 
stroke-linecap:round; stroke-linejoin:round;">
<circle cx="11723.3" cy="9815.35" r="118.11" /> 
</g>
<g style="fill:#000000; fill-opacity:1.0; 
stroke:#000000; stroke-width:39.3701; stroke-opacity:1; 
stroke-linecap:round; stroke-linejoin:round;">
</g>
<g style="fill:#000000; fill-opacity:1.0; 
stroke:#000000; stroke-width:0; stroke-opacity:1; 
stroke-linecap:round; stroke-linejoin:round;">
<circle cx="2963.46" cy="11764.2" r="118.11" /> 
</g>
<g style="fill:#000000; fill-opacity:1.0; 
stroke:#000000; stroke-width:39.3701; stroke-opacity:1; 
stroke-linecap:round; stroke-linejoin:round;">
</g>
<g style="fill:#000000; fill-opacity:1.0; 
stroke:#000000; stroke-width:157.48; stroke-opacity:1; 
stroke-linecap:round; stroke-linejoin:round;">
</g>
<g style="fill:#000000; fill-opacity:0.0; 
stroke:#000000; stroke-width:157.48; stroke-opacity:1; 
stroke-linecap:round; stroke-linejoin:round;">
<path d="M3160 12787
L5876 12787
" />
<path d="M9380 13122
L9719 12783
" />
<path d="M8298 13122
L9380 13122
" />
<path d="M7884 12709
L8298 13122
" />
<path d="M7884 12394
L7884 12709
" />
<path d="M7392 11901
L7884 12394
" />
<path d="M6762 11901
L7392 11901
" />
<path d="M5876 12787
L6762 11901
" />
<path d="M9719 12783
L9719 12498
" />
<path d="M11550 6698
L11550 4879
" />
<path d="M3357 4027
L3357 5484
" />
<path d="M4085 3299
L3357 4027
" />
<path d="M5443 3299
L4085 3299
" />
<path d="M5798 2945
L5443 3299
" />
<path d="M5798 2394
L5798 2945
" />
<path d="M7077 1114
L5798 2394
" />
<path d="M7786 1114
L7077 1114
" />
<path d="M11550 4879
L7786 1114
" />
<path d="M2865 12787
L2057 11980
" />
<path d="M3160 12787
L2865 12787
" />
<path d="M2057 11980
L2057 9461
" />
<path d="M1191 6272
L1585 6272
" />
<path d="M1585 6272
L2372 5484
" />
<path d="M2372 5484
L3357 5484
" />
<path d="M1664 6272
L1191 6272
" />
<path d="M1959 6567
L1664 6272
" />
<path d="M1959 9362
L1959 6567
" />
<path d="M2057 9461
L1959 9362
" />
<path d="M4144 11153
L3987 11153
" />
<path d="M4813 11823
L4144 11153
" />
<path d="M2412 10464
L2412 10051
" />
<path d="M3101 11153
L2412 10464
" />
<path d="M3987 11153
L3101 11153
" />
<path d="M2412 7551
L2412 10051
" />
<path d="M2333 7472
L2412 7551
" />
<path d="M1191 7177
L1191 12000
" />
<path d="M6309 13240
L7195 12354
" />
<path d="M2431 13240
L6309 13240
" />
<path d="M1191 12000
L2431 13240
" />
<path d="M7431 2335
L7431 1587
" />
<path d="M8396 3299
L7431 2335
" />
<path d="M8396 4165
L8396 3299
" />
<path d="M9341 5110
L8396 4165
" />
<path d="M9341 9205
L9341 5110
" />
<path d="M7825 10720
L9341 9205
" />
<path d="M2963 11764
L3770 11764
" />
<path d="M6487 11468
L7077 11468
" />
<path d="M5817 12138
L6487 11468
" />
<path d="M4144 12138
L5817 12138
" />
<path d="M3770 11764
L4144 12138
" />
<path d="M7077 11468
L10069 11468
" />
<path d="M10069 11468
L11723 9815
" />
</g>
<g style="fill:#000000; fill-opacity:0.0; 
stroke:#000000; stroke-width:314.961; stroke-opacity:1; 
stroke-linecap:round; stroke-linejoin:round;">
<path d="M13519 6698
L13519 6936
" />
<path d="M13519 6936
L12195 8260
" />
<path d="M12195 8260
L12195 10268
" />
<path d="M12195 10268
L12325 10398
" />
<path d="M12325 10398
L12819 10398
" />
</g>
<g style="fill:#000000; fill-opacity:1.0; 
stroke:#000000; stroke-width:100; stroke-opacity:1; 
stroke-linecap:round; stroke-linejoin:round;">
<polyline style="fill-rule:evenodd;"
points="20967,1913
20891,1928
20804,1986
20745,2074
20725,2177
20725,13915
989,13915
989,12262
2199,13473
2306,13544
2431,13569
6309,13569
6435,13544
6542,13473
7309,12706
7403,12666
7458,12612
8139,12612
8227,12826
8390,12989
8603,13077
8834,13078
9047,12990
9131,12905
9382,12905
9413,13004
9630,13082
9860,13072
10025,13004
10056,12905
9719,12568
9382,12905
9131,12905
9210,12827
9219,12805
9311,12834
9648,12498
9790,12498
10127,12834
10225,12803
10304,12586
10293,12356
10225,12192
10127,12161
9790,12498
9648,12498
9311,12161
9219,12190
9211,12169
9131,12090
9382,12090
9719,12427
10056,12090
10025,11991
9808,11913
9577,11923
9413,11991
9382,12090
9131,12090
9048,12006
8835,11918
8604,11917
8391,12006
8227,12169
8139,12382
8139,12612
7458,12612
7507,12563
7563,12428
7563,12281
7507,12146
7404,12042
7269,11986
7122,11986
6987,12042
6883,12145
6844,12241
6173,12911
2568,12911
1520,11864
1520,7826
1585,7826
1678,7808
1763,7753
1820,7670
1840,7571
1840,7545
1965,7545
2021,7681
2083,7743
2083,10464
2108,10590
2144,10644
2179,10697
2868,11386
2886,11397
2755,11451
2651,11555
2595,11690
2595,11837
2651,11972
2754,12076
2889,12132
3036,12132
3131,12092
3634,12092
3912,12370
4018,12441
4144,12466
5817,12466
5943,12441
6050,12370
6623,11797
10069,11797
10195,11772
10302,11701
11788,10215
11788,10268
11788,10268
11819,10424
11907,10556
12037,10686
12037,10686
12089,10720
12169,10774
12325,10805
12384,10805
12390,10815
12514,10898
12390,10980
12262,11172
12217,11398
12262,11623
12390,11815
12582,11943
12807,11988
12830,11988
13056,11943
13248,11815
13319,11708
13390,11815
13582,11943
13807,11988
13830,11988
14056,11943
14248,11815
14376,11623
14420,11398
14384,11212
17939,11212
18027,11426
18190,11589
18403,11677
18634,11678
18847,11590
18931,11505
19182,11505
19213,11604
19430,11682
19660,11672
19825,11604
19856,11505
19519,11168
19182,11505
18931,11505
19010,11427
19019,11405
19111,11434
19448,11098
19590,11098
19927,11434
20025,11403
20104,11186
20093,10956
20025,10792
19927,10761
19590,11098
19448,11098
19111,10761
19019,10790
19011,10769
18931,10690
19182,10690
19519,11027
19856,10690
19825,10591
19608,10513
19377,10523
19213,10591
19182,10690
18931,10690
18848,10606
18635,10518
18404,10517
18191,10606
18027,10769
17939,10982
17939,11212
14384,11212
14376,11172
14248,10980
14124,10898
14248,10815
14376,10623
14420,10398
14376,10172
14248,9980
14120,9895
14169,9873
14324,9703
14392,9539
14344,9448
13869,9448
13869,9455
13769,9455
13769,9448
12869,9448
12869,9455
12769,9455
12769,9448
12761,9448
12761,9348
12769,9348
12769,8870
12869,8870
12869,9348
13769,9348
13769,8872
13869,8872
13869,9348
14344,9348
14392,9256
14324,9092
14244,9005
15082,9005
15113,9104
15330,9182
15560,9172
15725,9104
15756,9005
15419,8668
15082,9005
14244,9005
14169,8922
13960,8825
13869,8872
13769,8872
13678,8825
13469,8922
13403,8994
13371,8916
13300,8846
13209,8808
12931,8808
12869,8870
12769,8870
12706,8808
12603,8808
12603,8509
14834,8509
14845,8739
14913,8903
15011,8934
15348,8598
15490,8598
15827,8934
15919,8905
15927,8926
16090,9089
16303,9177
16534,9178
16747,9090
16910,8927
16999,8713
16999,8483
16911,8269
16748,8106
16535,8018
16304,8017
16091,8106
15927,8269
15919,8290
15827,8261
15490,8598
15348,8598
15011,8261
14913,8292
14834,8509
12603,8509
12603,8429
12841,8190
15082,8190
15419,8527
15756,8190
15725,8091
15508,8013
15277,8023
15113,8091
15082,8190
12841,8190
13807,7224
13824,7199
13867,7191
13953,7136
13969,7112
18439,7112
18527,7326
18690,7489
18903,7577
19134,7578
19347,7490
19431,7405
19682,7405
19713,7504
19930,7582
20160,7572
20325,7504
20356,7405
20019,7068
19682,7405
19431,7405
19510,7327
19519,7305
19611,7334
19948,6998
20090,6998
20427,7334
20525,7303
20604,7086
20593,6856
20525,6692
20427,6661
20090,6998
19948,6998
19611,6661
19519,6690
19511,6669
19431,6590
19682,6590
20019,6927
20356,6590
20325,6491
20108,6413
19877,6423
19713,6491
19682,6590
19431,6590
19348,6506
19135,6418
18904,6417
18691,6506
18527,6669
18439,6882
18439,7112
13969,7112
14010,7053
14030,6953
14030,6442
14012,6349
13957,6264
13874,6207
13775,6187
13263,6187
13170,6204
13085,6259
13028,6342
13008,6442
13008,6871
11907,7972
11819,8104
11788,8260
11788,8260
11788,9447
11650,9447
11515,9503
11411,9606
11371,9701
9933,11140
6487,11140
6361,11165
6289,11212
6254,11236
5681,11809
5181,11809
5182,11750
5126,11614
5022,11511
4927,11471
4377,10921
4270,10850
4144,10825
3237,10825
2741,10328
2741,7551
2731,7504
2715,7425
2701,7404
2701,7399
2645,7264
2542,7160
2407,7104
2260,7104
2125,7160
2021,7264
1965,7399
1965,7545
1840,7545
1840,6783
1830,6728
1835,6715
1835,6384
1773,6322
1241,6322
1241,6329
1141,6329
1141,6322
1133,6322
1133,6222
1141,6222
1141,6214
1241,6214
1241,6222
1773,6222
1835,6159
1835,5828
1829,5814
1840,5760
1840,4972
1828,4911
1840,4854
1840,4067
1828,4006
1840,3949
1840,3161
1828,3100
1840,3043
1840,2417
3126,2417
3191,2574
3311,2694
3468,2759
3637,2760
3794,2695
3915,2575
3980,2418
3980,2417
4858,2417
4923,2574
5043,2694
5200,2759
5369,2760
5526,2695
5647,2575
5712,2418
5712,2248
5647,2091
5527,1971
5370,1906
5200,1905
5043,1970
4923,2090
4858,2247
4858,2417
3980,2417
3980,2248
3915,2091
3795,1971
3638,1906
3468,1905
3311,1970
3191,2090
3126,2247
3126,2417
1840,2417
1840,2256
1822,2163
1768,2078
1684,2021
1585,2001
919,2001
910,1986
822,1928
769,1917
769,1659
7063,1659
7103,1755
7103,2335
7128,2460
7199,2567
8067,3435
8067,4165
8092,4291
8164,4398
9012,5246
9012,5902
8982,5828
8828,5674
8628,5591
8411,5591
8210,5674
8057,5827
7973,6028
7973,6245
8056,6445
8209,6599
8410,6682
8627,6682
8827,6599
8981,6446
9012,6371
9012,7824
8982,7750
8828,7596
8628,7513
8411,7513
8210,7596
8057,7749
7973,7950
7973,8167
8056,8367
8209,8521
8410,8604
8627,8604
8827,8521
8981,8368
9012,8293
9012,9068
7712,10369
7617,10408
7513,10512
7457,10647
7457,10793
7513,10929
7616,11032
7752,11088
7898,11089
8033,11033
8137,10929
8177,10834
9573,9437
9645,9330
9670,9205
9670,7051
11267,7051
11289,7142
11479,7208
11680,7197
11812,7142
11834,7051
11550,6768
11267,7051
9670,7051
9670,6626
11039,6626
11051,6827
11106,6959
11196,6981
11480,6698
11621,6698
11904,6981
11995,6959
12061,6769
12050,6568
11995,6436
11904,6414
11621,6698
11480,6698
11196,6414
11106,6436
11039,6626
9670,6626
9670,6344
11267,6344
11550,6627
11834,6344
11812,6253
11622,6187
11421,6198
11289,6253
11267,6344
9670,6344
9670,5110
9666,5092
9645,4984
9573,4878
8725,4029
8725,3299
8705,3198
16824,3198
16824,3998
16841,4090
16896,4175
16980,4232
17079,4252
17759,4252
17852,4235
17937,4180
17994,4097
17997,4080
18002,4087
18193,4215
18419,4260
18645,4215
18836,4087
18917,3966
19064,4129
19271,4229
19278,4230
19369,4183
19369,3648
19469,3648
19469,4183
19560,4230
19566,4229
19774,4129
19928,3958
20004,3740
19947,3648
19469,3648
19369,3648
19361,3648
19361,3548
19369,3548
19369,3012
19469,3012
19469,3548
19947,3548
20004,3455
19928,3238
19774,3066
19566,2966
19560,2965
19469,3012
19369,3012
19278,2965
19271,2966
19064,3066
18917,3229
18836,3108
18645,2980
18419,2935
18193,2980
18002,3108
17998,3113
17996,3105
17942,3020
17858,2963
17759,2943
17079,2943
16986,2960
16901,3015
16844,3098
16824,3198
8705,3198
8700,3173
8628,3067
7760,2198
7760,1755
7800,1660
7800,1514
7744,1378
7640,1275
7505,1218
7359,1218
7223,1274
7120,1378
7063,1513
7063,1659
769,1659
769,847
20968,847
20967,1913
" /> 
</g>
<g style="fill:#FFFFFF; fill-opacity:1.0; 
stroke:#FFFFFF; stroke-width:100; stroke-opacity:1; 
stroke-linecap:round; stroke-linejoin:round;">
</g>
<g style="fill:#FFFFFF; fill-opacity:1.0; 
stroke:#FFFFFF; stroke-width:0; stroke-opacity:1; 
stroke-linecap:round; stroke-linejoin:round;">
<circle cx="3160.31" cy="12787.8" r="78.7402" /> 
</g>
<g style="fill:#FFFFFF; fill-opacity:1.0; 
stroke:#FFFFFF; stroke-width:39.3701; stroke-opacity:1; 
stroke-linecap:round; stroke-linejoin:round;">
</g>
<g style="fill:#FFFFFF; fill-opacity:1.0; 
stroke:#FFFFFF; stroke-width:0; stroke-opacity:1; 
stroke-linecap:round; stroke-linejoin:round;">
<circle cx="3357.16" cy="5484.65" r="78.7402" /> 
</g>
<g style="fill:#FFFFFF; fill-opacity:1.0; 
stroke:#FFFFFF; stroke-width:39.3701; stroke-opacity:1; 
stroke-linecap:round; stroke-linejoin:round;">
</g>
<g style="fill:#FFFFFF; fill-opacity:1.0; 
stroke:#FFFFFF; stroke-width:0; stroke-opacity:1; 
stroke-linecap:round; stroke-linejoin:round;">
<circle cx="2057.95" cy="9461.02" r="78.7402" /> 
</g>
<g style="fill:#FFFFFF; fill-opacity:1.0; 
stroke:#FFFFFF; stroke-width:39.3701; stroke-opacity:1; 
stroke-linecap:round; stroke-linejoin:round;">
</g>
<g style="fill:#FFFFFF; fill-opacity:1.0; 
stroke:#FFFFFF; stroke-width:0; stroke-opacity:1; 
stroke-linecap:round; stroke-linejoin:round;">
<circle cx="4813.85" cy="11823.2" r="78.7402" /> 
</g>
<g style="fill:#FFFFFF; fill-opacity:1.0; 
stroke:#FFFFFF; stroke-width:39.3701; stroke-opacity:1; 
stroke-linecap:round; stroke-linejoin:round;">
</g>
<g style="fill:#FFFFFF; fill-opacity:1.0; 
stroke:#FFFFFF; stroke-width:0; stroke-opacity:1; 
stroke-linecap:round; stroke-linejoin:round;">
<circle cx="2333.54" cy="7472.84" r="78.7402" /> 
</g>
<g style="fill:#FFFFFF; fill-opacity:1.0; 
stroke:#FFFFFF; stroke-width:39.3701; stroke-opacity:1; 
stroke-linecap:round; stroke-linejoin:round;">
</g>
<g style="fill:#FFFFFF; fill-opacity:1.0; 
stroke:#FFFFFF; stroke-width:0; stroke-opacity:1; 
stroke-linecap:round; stroke-linejoin:round;">
<circle cx="7195.74" cy="12354.7" r="78.7402" /> 
</g>
<g style="fill:#FFFFFF; fill-opacity:1.0; 
stroke:#FFFFFF; stroke-width:39.3701; stroke-opacity:1; 
stroke-linecap:round; stroke-linejoin:round;">
</g>
<g style="fill:#FFFFFF; fill-opacity:1.0; 
stroke:#FFFFFF; stroke-width:0; stroke-opacity:1; 
stroke-linecap:round; stroke-linejoin:round;">
<circle cx="7431.96" cy="1587.01" r="78.7402" /> 
</g>
<g style="fill:#FFFFFF; fill-opacity:1.0; 
stroke:#FFFFFF; stroke-width:39.3701; stroke-opacity:1; 
stroke-linecap:round; stroke-linejoin:round;">
</g>
<g style="fill:#FFFFFF; fill-opacity:1.0; 
stroke:#FFFFFF; stroke-width:0; stroke-opacity:1; 
stroke-linecap:round; stroke-linejoin:round;">
<circle cx="7825.67" cy="10720.9" r="78.7402" /> 
</g>
<g style="fill:#FFFFFF; fill-opacity:1.0; 
stroke:#FFFFFF; stroke-width:39.3701; stroke-opacity:1; 
stroke-linecap:round; stroke-linejoin:round;">
</g>
<g style="fill:#FFFFFF; fill-opacity:1.0; 
stroke:#FFFFFF; stroke-width:0; stroke-opacity:1; 
stroke-linecap:round; stroke-linejoin:round;">
<circle cx="11723.3" cy="9815.35" r="78.7402" /> 
</g>
<g style="fill:#FFFFFF; fill-opacity:1.0; 
stroke:#FFFFFF; stroke-width:39.3701; stroke-opacity:1; 
stroke-linecap:round; stroke-linejoin:round;">
</g>
<g style="fill:#FFFFFF; fill-opacity:1.0; 
stroke:#FFFFFF; stroke-width:0; stroke-opacity:1; 
stroke-linecap:round; stroke-linejoin:round;">
<circle cx="2963.46" cy="11764.2" r="78.7402" /> 
</g>
<g style="fill:#FFFFFF; fill-opacity:1.0; 
stroke:#FFFFFF; stroke-width:39.3701; stroke-opacity:1; 
stroke-linecap:round; stroke-linejoin:round;">
</g>
<g style="fill:#FFFFFF; fill-opacity:1.0; 
stroke:#FFFFFF; stroke-width:0; stroke-opacity:1; 
stroke-linecap:round; stroke-linejoin:round;">
<circle cx="1191.81" cy="2650" r="200" /> 
</g>
<g style="fill:#FFFFFF; fill-opacity:1.0; 
stroke:#FFFFFF; stroke-width:39.3701; stroke-opacity:1; 
stroke-linecap:round; stroke-linejoin:round;">
</g>
<g style="fill:#FFFFFF; fill-opacity:1.0; 
stroke:#FFFFFF; stroke-width:0; stroke-opacity:1; 
stroke-linecap:round; stroke-linejoin:round;">
<circle cx="1191.81" cy="3555.51" r="200" /> 
</g>
<g style="fill:#FFFFFF; fill-opacity:1.0; 
stroke:#FFFFFF; stroke-width:39.3701; stroke-opacity:1; 
stroke-linecap:round; stroke-linejoin:round;">
</g>
<g style="fill:#FFFFFF; fill-opacity:1.0; 
stroke:#FFFFFF; stroke-width:0; stroke-opacity:1; 
stroke-linecap:round; stroke-linejoin:round;">
<circle cx="1191.81" cy="4461.02" r="200" /> 
</g>
<g style="fill:#FFFFFF; fill-opacity:1.0; 
stroke:#FFFFFF; stroke-width:39.3701; stroke-opacity:1; 
stroke-linecap:round; stroke-linejoin:round;">
</g>
<g style="fill:#FFFFFF; fill-opacity:1.0; 
stroke:#FFFFFF; stroke-width:0; stroke-opacity:1; 
stroke-linecap:round; stroke-linejoin:round;">
<circle cx="1191.81" cy="5366.54" r="200" /> 
</g>
<g style="fill:#FFFFFF; fill-opacity:1.0; 
stroke:#FFFFFF; stroke-width:39.3701; stroke-opacity:1; 
stroke-linecap:round; stroke-linejoin:round;">
</g>
<g style="fill:#FFFFFF; fill-opacity:1.0; 
stroke:#FFFFFF; stroke-width:0; stroke-opacity:1; 
stroke-linecap:round; stroke-linejoin:round;">
<circle cx="1191.81" cy="6272.05" r="200" /> 
</g>
<g style="fill:#FFFFFF; fill-opacity:1.0; 
stroke:#FFFFFF; stroke-width:39.3701; stroke-opacity:1; 
stroke-linecap:round; stroke-linejoin:round;">
</g>
<g style="fill:#FFFFFF; fill-opacity:1.0; 
stroke:#FFFFFF; stroke-width:0; stroke-opacity:1; 
stroke-linecap:round; stroke-linejoin:round;">
<circle cx="1191.81" cy="7177.56" r="200" /> 
</g>
<g style="fill:#FFFFFF; fill-opacity:1.0; 
stroke:#FFFFFF; stroke-width:39.3701; stroke-opacity:1; 
stroke-linecap:round; stroke-linejoin:round;">
</g>
<g style="fill:#FFFFFF; fill-opacity:1.0; 
stroke:#FFFFFF; stroke-width:0; stroke-opacity:1; 
stroke-linecap:round; stroke-linejoin:round;">
<circle cx="8719.37" cy="12498" r="160" /> 
</g>
<g style="fill:#FFFFFF; fill-opacity:1.0; 
stroke:#FFFFFF; stroke-width:39.3701; stroke-opacity:1; 
stroke-linecap:round; stroke-linejoin:round;">
</g>
<g style="fill:#FFFFFF; fill-opacity:1.0; 
stroke:#FFFFFF; stroke-width:0; stroke-opacity:1; 
stroke-linecap:round; stroke-linejoin:round;">
<circle cx="9719.37" cy="12498" r="160" /> 
</g>
<g style="fill:#FFFFFF; fill-opacity:1.0; 
stroke:#FFFFFF; stroke-width:39.3701; stroke-opacity:1; 
stroke-linecap:round; stroke-linejoin:round;">
</g>
<g style="fill:#FFFFFF; fill-opacity:1.0; 
stroke:#FFFFFF; stroke-width:0; stroke-opacity:1; 
stroke-linecap:round; stroke-linejoin:round;">
<circle cx="18519.4" cy="11098" r="160" /> 
</g>
<g style="fill:#FFFFFF; fill-opacity:1.0; 
stroke:#FFFFFF; stroke-width:39.3701; stroke-opacity:1; 
stroke-linecap:round; stroke-linejoin:round;">
</g>
<g style="fill:#FFFFFF; fill-opacity:1.0; 
stroke:#FFFFFF; stroke-width:0; stroke-opacity:1; 
stroke-linecap:round; stroke-linejoin:round;">
<circle cx="19519.4" cy="11098" r="160" /> 
</g>
<g style="fill:#FFFFFF; fill-opacity:1.0; 
stroke:#FFFFFF; stroke-width:39.3701; stroke-opacity:1; 
stroke-linecap:round; stroke-linejoin:round;">
</g>
<g style="fill:#FFFFFF; fill-opacity:1.0; 
stroke:#FFFFFF; stroke-width:0; stroke-opacity:1; 
stroke-linecap:round; stroke-linejoin:round;">
<circle cx="16419.4" cy="8598.03" r="160" /> 
</g>
<g style="fill:#FFFFFF; fill-opacity:1.0; 
stroke:#FFFFFF; stroke-width:39.3701; stroke-opacity:1; 
stroke-linecap:round; stroke-linejoin:round;">
</g>
<g style="fill:#FFFFFF; fill-opacity:1.0; 
stroke:#FFFFFF; stroke-width:0; stroke-opacity:1; 
stroke-linecap:round; stroke-linejoin:round;">
<circle cx="15419.4" cy="8598.03" r="160" /> 
</g>
<g style="fill:#FFFFFF; fill-opacity:1.0; 
stroke:#FFFFFF; stroke-width:39.3701; stroke-opacity:1; 
stroke-linecap:round; stroke-linejoin:round;">
</g>
<g style="fill:#FFFFFF; fill-opacity:1.0; 
stroke:#FFFFFF; stroke-width:0; stroke-opacity:1; 
stroke-linecap:round; stroke-linejoin:round;">
<circle cx="19019.4" cy="6998.03" r="160" /> 
</g>
<g style="fill:#FFFFFF; fill-opacity:1.0; 
stroke:#FFFFFF; stroke-width:39.3701; stroke-opacity:1; 
stroke-linecap:round; stroke-linejoin:round;">
</g>
<g style="fill:#FFFFFF; fill-opacity:1.0; 
stroke:#FFFFFF; stroke-width:0; stroke-opacity:1; 
stroke-linecap:round; stroke-linejoin:round;">
<circle cx="20019.4" cy="6998.03" r="160" /> 
</g>
<g style="fill:#FFFFFF; fill-opacity:1.0; 
stroke:#FFFFFF; stroke-width:39.3701; stroke-opacity:1; 
stroke-linecap:round; stroke-linejoin:round;">
</g>
<g style="fill:#FFFFFF; fill-opacity:1.0; 
stroke:#FFFFFF; stroke-width:0; stroke-opacity:1; 
stroke-linecap:round; stroke-linejoin:round;">
<circle cx="17419.4" cy="3598.03" r="200" /> 
</g>
<g style="fill:#FFFFFF; fill-opacity:1.0; 
stroke:#FFFFFF; stroke-width:39.3701; stroke-opacity:1; 
stroke-linecap:round; stroke-linejoin:round;">
</g>
<g style="fill:#FFFFFF; fill-opacity:1.0; 
stroke:#FFFFFF; stroke-width:0; stroke-opacity:1; 
stroke-linecap:round; stroke-linejoin:round;">
<circle cx="18419.4" cy="3598.03" r="200" /> 
</g>
<g style="fill:#FFFFFF; fill-opacity:1.0; 
stroke:#FFFFFF; stroke-width:39.3701; stroke-opacity:1; 
stroke-linecap:round; stroke-linejoin:round;">
</g>
<g style="fill:#FFFFFF; fill-opacity:1.0; 
stroke:#FFFFFF; stroke-width:0; stroke-opacity:1; 
stroke-linecap:round; stroke-linejoin:round;">
<circle cx="19419.4" cy="3598.03" r="200" /> 
</g>
<g style="fill:#FFFFFF; fill-opacity:1.0; 
stroke:#FFFFFF; stroke-width:39.3701; stroke-opacity:1; 
stroke-linecap:round; stroke-linejoin:round;">
</g>
<g style="fill:#FFFFFF; fill-opacity:1.0; 
stroke:#FFFFFF; stroke-width:0; stroke-opacity:1; 
stroke-linecap:round; stroke-linejoin:round;">
<circle cx="12819.4" cy="9398.03" r="200" /> 
</g>
<g style="fill:#FFFFFF; fill-opacity:1.0; 
stroke:#FFFFFF; stroke-width:39.3701; stroke-opacity:1; 
stroke-linecap:round; stroke-linejoin:round;">
</g>
<g style="fill:#FFFFFF; fill-opacity:1.0; 
stroke:#FFFFFF; stroke-width:0; stroke-opacity:1; 
stroke-linecap:round; stroke-linejoin:round;">
<circle cx="13819.4" cy="9398.03" r="200" /> 
</g>
<g style="fill:#FFFFFF; fill-opacity:1.0; 
stroke:#FFFFFF; stroke-width:39.3701; stroke-opacity:1; 
stroke-linecap:round; stroke-linejoin:round;">
</g>
<g style="fill:#FFFFFF; fill-opacity:1.0; 
stroke:#FFFFFF; stroke-width:0; stroke-opacity:1; 
stroke-linecap:round; stroke-linejoin:round;">
<circle cx="12819.4" cy="10398" r="200" /> 
</g>
<g style="fill:#FFFFFF; fill-opacity:1.0; 
stroke:#FFFFFF; stroke-width:39.3701; stroke-opacity:1; 
stroke-linecap:round; stroke-linejoin:round;">
</g>
<g style="fill:#FFFFFF; fill-opacity:1.0; 
stroke:#FFFFFF; stroke-width:0; stroke-opacity:1; 
stroke-linecap:round; stroke-linejoin:round;">
<circle cx="13819.4" cy="10398" r="200" /> 
</g>
<g style="fill:#FFFFFF; fill-opacity:1.0; 
stroke:#FFFFFF; stroke-width:39.3701; stroke-opacity:1; 
stroke-linecap:round; stroke-linejoin:round;">
</g>
<g style="fill:#FFFFFF; fill-opacity:1.0; 
stroke:#FFFFFF; stroke-width:0; stroke-opacity:1; 
stroke-linecap:round; stroke-linejoin:round;">
<circle cx="12819.4" cy="11398" r="200" /> 
</g>
<g style="fill:#FFFFFF; fill-opacity:1.0; 
stroke:#FFFFFF; stroke-width:39.3701; stroke-opacity:1; 
stroke-linecap:round; stroke-linejoin:round;">
</g>
<g style="fill:#FFFFFF; fill-opacity:1.0; 
stroke:#FFFFFF; stroke-width:0; stroke-opacity:1; 
stroke-linecap:round; stroke-linejoin:round;">
<circle cx="13819.4" cy="11398" r="200" /> 
</g>
<g style="fill:#FFFFFF; fill-opacity:1.0; 
stroke:#FFFFFF; stroke-width:39.3701; stroke-opacity:1; 
stroke-linecap:round; stroke-linejoin:round;">
</g>
<g style="fill:#FFFFFF; fill-opacity:1.0; 
stroke:#FFFFFF; stroke-width:0; stroke-opacity:1; 
stroke-linecap:round; stroke-linejoin:round;">
<circle cx="13519.4" cy="6698.03" r="157.48" /> 
</g>
<g style="fill:#FFFFFF; fill-opacity:1.0; 
stroke:#FFFFFF; stroke-width:39.3701; stroke-opacity:1; 
stroke-linecap:round; stroke-linejoin:round;">
</g>
<g style="fill:#FFFFFF; fill-opacity:1.0; 
stroke:#FFFFFF; stroke-width:0; stroke-opacity:1; 
stroke-linecap:round; stroke-linejoin:round;">
<circle cx="11550.9" cy="6698.03" r="157.48" /> 
</g>
<g style="fill:#FFFFFF; fill-opacity:1.0; 
stroke:#FFFFFF; stroke-width:39.3701; stroke-opacity:1; 
stroke-linecap:round; stroke-linejoin:round;">
</g>
<g style="fill:#FFFFFF; fill-opacity:1.0; 
stroke:#FFFFFF; stroke-width:0; stroke-opacity:1; 
stroke-linecap:round; stroke-linejoin:round;">
<circle cx="5285.37" cy="2333.03" r="177" /> 
</g>
<g style="fill:#FFFFFF; fill-opacity:1.0; 
stroke:#FFFFFF; stroke-width:39.3701; stroke-opacity:1; 
stroke-linecap:round; stroke-linejoin:round;">
</g>
<g style="fill:#FFFFFF; fill-opacity:1.0; 
stroke:#FFFFFF; stroke-width:0; stroke-opacity:1; 
stroke-linecap:round; stroke-linejoin:round;">
<circle cx="3553.37" cy="2333.03" r="177" /> 
</g>
<g style="fill:#FFFFFF; fill-opacity:1.0; 
stroke:#FFFFFF; stroke-width:39.3701; stroke-opacity:1; 
stroke-linecap:round; stroke-linejoin:round;">
</g>
<g style="fill:#FFFFFF; fill-opacity:1.0; 
stroke:#FFFFFF; stroke-width:0; stroke-opacity:1; 
stroke-linecap:round; stroke-linejoin:round;">
<circle cx="8519.37" cy="6137.03" r="157.5" /> 
</g>
<g style="fill:#FFFFFF; fill-opacity:1.0; 
stroke:#FFFFFF; stroke-width:39.3701; stroke-opacity:1; 
stroke-linecap:round; stroke-linejoin:round;">
</g>
<g style="fill:#FFFFFF; fill-opacity:1.0; 
stroke:#FFFFFF; stroke-width:0; stroke-opacity:1; 
stroke-linecap:round; stroke-linejoin:round;">
<circle cx="8519.37" cy="8059.03" r="157.5" /> 
</g>
<g style="fill:#FFFFFF; fill-opacity:1.0; 
stroke:#FFFFFF; stroke-width:39.3701; stroke-opacity:1; 
stroke-linecap:round; stroke-linejoin:round;">
</g>
<g style="fill:#000000; fill-opacity:1.0; 
stroke:#000000; stroke-width:39.3701; stroke-opacity:1; 
stroke-linecap:round; stroke-linejoin:round;">
</g> 
</svg>
